<svg width="16" height="20" viewBox="0 0 16 20" fill="none" xmlns="http://www.w3.org/2000/svg">
<path d="M2.14001 11.6669C1.51473 10.6429 1.18506 9.46583 1.18751 8.26604C1.18751 4.62104 4.17251 1.66687 7.85418 1.66687C11.5358 1.66687 14.5208 4.62104 14.5208 8.26604C14.5233 9.46583 14.1936 10.6429 13.5683 11.6669M10.3542 15.8335L10.2458 16.3727C10.1292 16.9619 10.07 17.256 9.93751 17.4894C9.73334 17.849 9.40276 18.1199 9.01001 18.2494C8.75585 18.3335 8.45418 18.3335 7.85418 18.3335C7.25418 18.3335 6.95251 18.3335 6.69835 18.2502C6.30546 18.1205 5.97486 17.8493 5.77085 17.4894C5.63835 17.256 5.57918 16.9619 5.46251 16.3727L5.35418 15.8335M4.00668 14.2485C3.93001 14.0185 3.89168 13.9027 3.89585 13.8094C3.90056 13.7129 3.93314 13.6198 3.98963 13.5414C4.04612 13.463 4.12412 13.4027 4.21418 13.3677C4.30085 13.3335 4.42251 13.3335 4.66418 13.3335H11.0442C11.2867 13.3335 11.4075 13.3335 11.4942 13.3669C11.5844 13.4019 11.6624 13.4624 11.719 13.5409C11.7755 13.6195 11.808 13.7127 11.8125 13.8094C11.8167 13.9027 11.7783 14.0177 11.7017 14.2485C11.56 14.6744 11.4892 14.8877 11.38 15.0602C11.1517 15.4207 10.7938 15.6799 10.38 15.7844C10.1817 15.8335 9.95835 15.8335 9.51085 15.8335H6.19751C5.75001 15.8335 5.52585 15.8335 5.32835 15.7835C4.91473 15.6793 4.55684 15.4204 4.32835 15.0602C4.21918 14.8877 4.14835 14.6744 4.00668 14.2485Z" stroke="#FAB83D" stroke-width="1.5" stroke-linecap="round" stroke-linejoin="round"/>
<path d="M8.31325 5.41687L7.04575 6.82937C7.0063 6.87351 6.97931 6.92735 6.96757 6.98537C6.95582 7.04339 6.95974 7.1035 6.97891 7.1595C6.99809 7.21551 7.03184 7.2654 7.07668 7.30404C7.12153 7.34268 7.17586 7.36868 7.23408 7.37937L8.47408 7.6052C8.53553 7.61634 8.59261 7.64452 8.63882 7.68653C8.68503 7.72853 8.71852 7.78267 8.73546 7.84278C8.75239 7.90289 8.75211 7.96655 8.73462 8.0265C8.71714 8.08645 8.68317 8.14029 8.63658 8.18187L7.06325 9.58354" stroke="#FAB83D" stroke-width="1.5" stroke-linecap="round" stroke-linejoin="round"/>
</svg>
