<svg width="12" height="12" viewBox="0 0 12 12" fill="none" xmlns="http://www.w3.org/2000/svg">
<path fill-rule="evenodd" clip-rule="evenodd" d="M6.05212 3.49355C6.73027 2.81539 7.82979 2.81538 8.50795 3.49354V3.49354C9.18611 4.1717 9.18611 5.27122 8.50795 5.94937L3.84972 10.6076C3.17157 11.2857 2.07207 11.2857 1.39392 10.6076V10.6076C0.715769 9.92944 0.715764 8.82994 1.39391 8.15178L6.05212 3.49355ZM6.50384 5.49764C6.78911 5.7829 7.25162 5.7829 7.53688 5.49763L7.79654 5.23796C8.08179 4.9527 8.08179 4.49021 7.79654 4.20496V4.20496C7.51128 3.91969 7.04878 3.91969 6.76352 4.20494L6.50385 4.46461C6.21858 4.74987 6.21858 5.21237 6.50384 5.49764V5.49764Z" fill="#444444"/>
<path d="M10.6013 1.39651L10.0731 0.164062L9.54495 1.39651L8.3125 1.9247L9.54495 2.45289L10.0731 3.68533L10.6013 2.45289L11.8338 1.9247L10.6013 1.39651Z" fill="#444444"/>
<path d="M10.6013 6.98244L10.0731 5.75L9.54495 6.98244L8.3125 7.51064L9.54495 8.03883L10.0731 9.27127L10.6013 8.03883L11.8338 7.51064L10.6013 6.98244Z" fill="#444444"/>
<path d="M5.01736 1.39651L4.48915 0.164062L3.96096 1.39651L2.72852 1.9247L3.96096 2.45289L4.48915 3.68533L5.01736 2.45289L6.2498 1.9247L5.01736 1.39651Z" fill="#444444"/>
</svg>
