<svg width="14" height="14" viewBox="0 0 14 14" fill="none" xmlns="http://www.w3.org/2000/svg">
<path d="M7.00065 1.75C7.32282 1.75 7.58398 2.01117 7.58398 2.33333V7.92504L8.92151 6.58752C9.14931 6.35972 9.51866 6.35972 9.74646 6.58752C9.97427 6.81533 9.97427 7.18467 9.74646 7.41248L7.41313 9.74581C7.18532 9.97362 6.81598 9.97362 6.58817 9.74581L4.25484 7.41248C4.02703 7.18467 4.02703 6.81533 4.25484 6.58752C4.48264 6.35972 4.85199 6.35972 5.0798 6.58752L6.41732 7.92504V2.33333C6.41732 2.01117 6.67849 1.75 7.00065 1.75ZM2.91732 9.33333C3.23948 9.33333 3.50065 9.5945 3.50065 9.91667V11.0833H10.5007V9.91667C10.5007 9.5945 10.7618 9.33333 11.084 9.33333C11.4062 9.33333 11.6673 9.5945 11.6673 9.91667V11.0833C11.6673 11.7277 11.145 12.25 10.5007 12.25H3.50065C2.85632 12.25 2.33398 11.7277 2.33398 11.0833V9.91667C2.33398 9.5945 2.59515 9.33333 2.91732 9.33333Z" fill="#444444"/>
</svg>
