<svg width="14" height="14" viewBox="0 0 14 14" fill="none" xmlns="http://www.w3.org/2000/svg">
<path fill-rule="evenodd" clip-rule="evenodd" d="M5.25 2.91406C6.01195 2.91406 6.66015 3.40101 6.90042 4.08068H11.6667C11.9888 4.08068 12.25 4.34185 12.25 4.66402C12.25 4.98618 11.9888 5.24735 11.6667 5.24735H6.90042C6.66021 5.9271 6.01195 6.41406 5.25 6.41406C4.48801 6.41406 3.83978 5.9271 3.59956 5.24735H2.33333C2.01117 5.24735 1.75 4.98618 1.75 4.66402C1.75 4.34185 2.01117 4.08068 2.33333 4.08068H3.59959C3.83984 3.40101 4.48806 2.91406 5.25 2.91406ZM5.83333 4.66406C5.83333 4.3419 5.57216 4.08073 5.25 4.08073C4.92783 4.08073 4.66667 4.3419 4.66667 4.66406C4.66667 4.98623 4.92783 5.2474 5.25 5.2474C5.57216 5.2474 5.83333 4.98623 5.83333 4.66406Z" fill="#222222"/>
<path fill-rule="evenodd" clip-rule="evenodd" d="M8.75 7.58073C9.51195 7.58073 10.1601 8.0677 10.4004 8.74734H11.6667C11.9888 8.74734 12.25 9.0085 12.25 9.33067C12.25 9.65285 11.9888 9.914 11.6667 9.914H10.4004C10.1602 10.5938 9.51195 11.0807 8.75 11.0807C7.98799 11.0807 7.33979 10.5938 7.09957 9.914H2.33334C2.01118 9.914 1.75001 9.65285 1.75001 9.33067C1.75001 9.0085 2.01118 8.74734 2.33334 8.74734H7.09957C7.33985 8.0677 7.98805 7.58073 8.75 7.58073ZM9.33333 9.33073C9.33333 9.00855 9.07217 8.7474 8.75 8.7474C8.42782 8.7474 8.16667 9.00855 8.16667 9.33073C8.16667 9.6529 8.42782 9.91406 8.75 9.91406C9.07217 9.91406 9.33333 9.6529 9.33333 9.33073Z" fill="#222222"/>
</svg>
