<svg width="20" height="20" viewBox="0 0 20 20" fill="none" xmlns="http://www.w3.org/2000/svg">
<path d="M3.21901 4.29164C2.88882 4.50066 2.61693 4.7899 2.42871 5.13238C2.24048 5.47485 2.14205 5.85942 2.14258 6.25021V13.7502C2.14258 15.8216 3.82115 17.5002 5.89258 17.5002H13.3926C13.7836 17.5002 14.1682 17.4015 14.5108 17.2132C14.8535 17.0249 15.143 16.7531 15.3526 16.4231L15.2654 16.4274L15.1783 16.4288H5.89258C5.18218 16.4288 4.50087 16.1466 3.99854 15.6442C3.49621 15.1419 3.21401 14.4606 3.21401 13.7502V4.46449C3.21401 4.4064 3.21568 4.34878 3.21901 4.29164ZM6.24972 2.14307C5.63404 2.14307 5.04358 2.38764 4.60823 2.823C4.17287 3.25835 3.92829 3.84881 3.92829 4.46449V13.3931C3.92829 13.6979 3.98834 13.9998 4.105 14.2814C4.22167 14.5631 4.39266 14.819 4.60823 15.0346C4.82379 15.2501 5.0797 15.4211 5.36135 15.5378C5.643 15.6544 5.94487 15.7145 6.24972 15.7145H15.1783C15.4831 15.7145 15.785 15.6544 16.0667 15.5378C16.3483 15.4211 16.6042 15.2501 16.8198 15.0346C17.0354 14.819 17.2064 14.5631 17.323 14.2814C17.4397 13.9998 17.4997 13.6979 17.4997 13.3931V4.46449C17.4997 3.84881 17.2551 3.25835 16.8198 2.823C16.3844 2.38764 15.794 2.14307 15.1783 2.14307H6.24972ZM5.83401 14.5724L10.339 10.1595C10.4296 10.0709 10.5485 10.0173 10.6749 10.0082C10.8012 9.99903 10.9266 10.0349 11.029 10.1095L11.089 10.1595L15.5933 14.5724C15.4598 14.6186 15.3196 14.6425 15.1783 14.6431H6.24972C6.10306 14.6421 5.96449 14.6185 5.83401 14.5724ZM6.24972 3.21449H15.1783C15.8683 3.21449 16.4283 3.77449 16.4283 4.46449V13.3931C16.4278 13.5426 16.4033 13.6838 16.3547 13.8166L11.839 9.3945C11.554 9.11527 11.1753 8.95206 10.7766 8.93661C10.3778 8.92116 9.98765 9.05459 9.68187 9.31092L9.58901 9.3945L5.07329 13.8174C5.02509 13.6811 5.00022 13.5376 4.99972 13.3931V4.46449C4.99972 3.77449 5.55972 3.21449 6.24972 3.21449ZM8.21401 5.53664C8.09468 5.53326 7.97588 5.55385 7.86465 5.59718C7.75342 5.64052 7.652 5.70572 7.5664 5.78893C7.48081 5.87214 7.41276 5.97167 7.3663 6.08163C7.31984 6.1916 7.2959 6.30976 7.2959 6.42914C7.2959 6.54851 7.31984 6.66668 7.3663 6.77664C7.41276 6.88661 7.48081 6.98614 7.5664 7.06935C7.652 7.15256 7.75342 7.21776 7.86465 7.26109C7.97588 7.30443 8.09468 7.32501 8.21401 7.32164C8.44634 7.31506 8.66696 7.21815 8.82897 7.05149C8.99098 6.88483 9.08161 6.66157 9.08161 6.42914C9.08161 6.19671 8.99098 5.97344 8.82897 5.80678C8.66696 5.64012 8.44634 5.54321 8.21401 5.53664Z" fill="white"/>
</svg>
