<svg width="20" height="20" viewBox="0 0 20 20" fill="none" xmlns="http://www.w3.org/2000/svg">
<path d="M3 3.75C3 3.55109 3.07902 3.36032 3.21967 3.21967C3.36032 3.07902 3.55109 3 3.75 3H13.75C13.9489 3 14.1397 3.07902 14.2803 3.21967C14.421 3.36032 14.5 3.55109 14.5 3.75V5.25C14.5 5.44891 14.421 5.63968 14.2803 5.78033C14.1397 5.92098 13.9489 6 13.75 6C13.5511 6 13.3603 5.92098 13.2197 5.78033C13.079 5.63968 13 5.44891 13 5.25V4.5H9.5V12.206C9.17016 12.9258 8.99961 13.7083 9 14.5C9 15.4 9.216 16.25 9.6 17H6.75C6.55109 17 6.36032 16.921 6.21967 16.7803C6.07902 16.6397 6 16.4489 6 16.25C6 16.0511 6.07902 15.8603 6.21967 15.7197C6.36032 15.579 6.55109 15.5 6.75 15.5H8V4.5H4.5V5.25C4.5 5.44891 4.42098 5.63968 4.28033 5.78033C4.13968 5.92098 3.94891 6 3.75 6C3.55109 6 3.36032 5.92098 3.21967 5.78033C3.07902 5.63968 3 5.44891 3 5.25V3.75ZM19 14.5C19 15.6935 18.5259 16.8381 17.682 17.682C16.8381 18.5259 15.6935 19 14.5 19C13.3065 19 12.1619 18.5259 11.318 17.682C10.4741 16.8381 10 15.6935 10 14.5C10 13.3065 10.4741 12.1619 11.318 11.318C12.1619 10.4741 13.3065 10 14.5 10C15.6935 10 16.8381 10.4741 17.682 11.318C18.5259 12.1619 19 13.3065 19 14.5ZM15 12.5C15 12.3674 14.9473 12.2402 14.8536 12.1464C14.7598 12.0527 14.6326 12 14.5 12C14.3674 12 14.2402 12.0527 14.1464 12.1464C14.0527 12.2402 14 12.3674 14 12.5V14H12.5C12.3674 14 12.2402 14.0527 12.1464 14.1464C12.0527 14.2402 12 14.3674 12 14.5C12 14.6326 12.0527 14.7598 12.1464 14.8536C12.2402 14.9473 12.3674 15 12.5 15H14V16.5C14 16.6326 14.0527 16.7598 14.1464 16.8536C14.2402 16.9473 14.3674 17 14.5 17C14.6326 17 14.7598 16.9473 14.8536 16.8536C14.9473 16.7598 15 16.6326 15 16.5V15H16.5C16.6326 15 16.7598 14.9473 16.8536 14.8536C16.9473 14.7598 17 14.6326 17 14.5C17 14.3674 16.9473 14.2402 16.8536 14.1464C16.7598 14.0527 16.6326 14 16.5 14H15V12.5Z" fill="white"/>
</svg>
