<svg width="20" height="20" viewBox="0 0 20 20" fill="none" xmlns="http://www.w3.org/2000/svg">
<path d="M16.6668 9.99998L15.0001 10.4166C14.2728 10.4803 13.5404 10.3838 12.8543 10.1341C12.1682 9.8844 11.5452 9.48746 11.0289 8.9712C10.5127 8.45494 10.1157 7.83188 9.86601 7.14581C9.61629 6.45974 9.51985 5.72731 9.58347 4.99998L10.0001 3.33331L16.6668 9.99998Z" stroke="white" stroke-width="1.5" stroke-linecap="round" stroke-linejoin="round"/>
<path d="M16.6673 9.99998C16.6673 11.3185 16.2763 12.6075 15.5438 13.7038C14.8112 14.8001 13.7701 15.6546 12.5519 16.1592C11.3337 16.6638 9.99326 16.7958 8.70005 16.5385C7.40685 16.2813 6.21896 15.6464 5.28661 14.714C4.35426 13.7817 3.71932 12.5938 3.46209 11.3006C3.20485 10.0074 3.33687 8.66693 3.84146 7.44876C4.34604 6.23058 5.20052 5.18939 6.29685 4.45685C7.39318 3.72431 8.68211 3.33331 10.0007 3.33331" stroke="white" stroke-width="1.5" stroke-linecap="round" stroke-linejoin="round"/>
</svg>
