<svg width="20" height="20" viewBox="0 0 20 20" fill="none" xmlns="http://www.w3.org/2000/svg">
<path d="M14.1159 4.33173H5.51401C4.83533 4.33173 4.28516 4.8819 4.28516 5.56058V14.1625C4.28516 14.8412 4.83533 15.3914 5.51401 15.3914H14.1159C14.7946 15.3914 15.3448 14.8412 15.3448 14.1625V5.56058C15.3448 4.8819 14.7946 4.33173 14.1159 4.33173Z" stroke="white" stroke-width="1.5" stroke-linecap="round" stroke-linejoin="round"/>
<path d="M7.97299 9.24762C8.65166 9.24762 9.20184 8.69744 9.20184 8.01877C9.20184 7.34009 8.65166 6.78992 7.97299 6.78992C7.29432 6.78992 6.74414 7.34009 6.74414 8.01877C6.74414 8.69744 7.29432 9.24762 7.97299 9.24762Z" stroke="white" stroke-width="1.5" stroke-linecap="round" stroke-linejoin="round"/>
<path d="M15.3453 11.7048L13.4492 9.8087C13.2187 9.57833 12.9062 9.44891 12.5804 9.44891C12.2545 9.44891 11.942 9.57833 11.7116 9.8087L6.12891 15.3914" stroke="white" stroke-width="1.5" stroke-linecap="round" stroke-linejoin="round"/>
<path d="M17.7266 1.21111e-07C17.852 -1.58168e-07 17.9748 0.0351752 18.0813 0.101529C18.1877 0.167882 18.2733 0.262752 18.3285 0.375358L18.3607 0.453781L18.5953 1.14149L19.2836 1.37609C19.4093 1.41878 19.5195 1.49782 19.6002 1.60319C19.6809 1.70856 19.7285 1.83551 19.7369 1.96796C19.7454 2.10041 19.7144 2.23239 19.6477 2.34718C19.5811 2.46197 19.4819 2.5544 19.3627 2.61276L19.2836 2.64493L18.5959 2.87953L18.3613 3.56791C18.3186 3.69354 18.2395 3.80364 18.134 3.88428C18.0286 3.96491 17.9017 4.01243 17.7692 4.02083C17.6368 4.02923 17.5048 3.99812 17.3901 3.93145C17.2753 3.86478 17.183 3.76555 17.1247 3.64633L17.0925 3.56791L16.8579 2.8802L16.1695 2.6456C16.0438 2.60291 15.9337 2.52387 15.853 2.4185C15.7723 2.31313 15.7247 2.18618 15.7162 2.05373C15.7077 1.92128 15.7388 1.7893 15.8054 1.67451C15.872 1.55972 15.9712 1.46729 16.0904 1.40893L16.1695 1.37676L16.8572 1.14216L17.0918 0.453781C17.137 0.32135 17.2225 0.206385 17.3364 0.125007C17.4502 0.043628 17.5866 -8.39738e-05 17.7266 1.21111e-07Z" fill="white"/>
</svg>
