<svg width="23" height="23" viewBox="0 0 23 23" fill="none" xmlns="http://www.w3.org/2000/svg">
<path d="M15.334 4.7915H21.084" stroke="white" stroke-width="2" stroke-linecap="round" stroke-linejoin="round"/>
<path d="M18.209 1.91602V7.66602" stroke="white" stroke-width="2" stroke-linecap="round" stroke-linejoin="round"/>
<path d="M20.125 11.0208V18.2083C20.125 18.7167 19.9231 19.2042 19.5636 19.5636C19.2042 19.9231 18.7167 20.125 18.2083 20.125H4.79167C4.28333 20.125 3.79582 19.9231 3.43638 19.5636C3.07693 19.2042 2.875 18.7167 2.875 18.2083V4.79167C2.875 4.28333 3.07693 3.79582 3.43638 3.43638C3.79582 3.07693 4.28333 2.875 4.79167 2.875H11.9792" stroke="white" stroke-width="2" stroke-linecap="round" stroke-linejoin="round"/>
<path d="M20.125 14.3745L17.1676 11.4171C16.8082 11.0578 16.3207 10.856 15.8125 10.856C15.3043 10.856 14.8168 11.0578 14.4574 11.4171L5.75 20.1245" stroke="white" stroke-width="2" stroke-linecap="round" stroke-linejoin="round"/>
<path d="M8.62565 10.5418C9.6842 10.5418 10.5423 9.68371 10.5423 8.62516C10.5423 7.56662 9.6842 6.7085 8.62565 6.7085C7.56711 6.7085 6.70898 7.56662 6.70898 8.62516C6.70898 9.68371 7.56711 10.5418 8.62565 10.5418Z" stroke="white" stroke-width="2" stroke-linecap="round" stroke-linejoin="round"/>
</svg>
