<svg width="23" height="28" viewBox="0 0 23 28" fill="none" xmlns="http://www.w3.org/2000/svg">
<path d="M18.133 14.492V11.645H15.494V10.761H18.133V7.914H19.082V10.761H21.734V11.645H19.082V14.492H18.133Z" fill="#8F9093"/>
<path d="M19.2497 27.3331H2.74996C1.23381 27.3331 0 26.0992 0 24.5831V11.75C0 10.2338 1.23381 9 2.74996 9H11.9165C12.4225 9 12.8331 9.40974 12.8331 9.91665C12.8331 10.4236 12.4225 10.8333 11.9165 10.8333H2.74996C2.24488 10.8333 1.83331 11.244 1.83331 11.75V24.5831C1.83331 25.0891 2.24488 25.4998 2.74996 25.4998H19.2497C19.7548 25.4998 20.1664 25.0891 20.1664 24.5831V17.2499C20.1664 16.743 20.577 16.3332 21.083 16.3332C21.589 16.3332 21.9997 16.743 21.9997 17.2499V24.5831C21.9997 26.0992 20.7659 27.3331 19.2497 27.3331Z" fill="#8F9093"/>
<path d="M16.9219 23.0784H6.8387C6.46837 23.0784 6.1338 22.8556 5.99171 22.5128C5.84963 22.17 5.92847 21.7758 6.19063 21.5137L12.6072 15.0971C12.8089 14.8945 13.0903 14.7973 13.3772 14.8368C13.6604 14.8743 13.9098 15.043 14.0509 15.2905L17.7175 21.7071C17.8798 21.9912 17.8789 22.3386 17.7148 22.6219C17.5507 22.9051 17.2491 23.0784 16.9219 23.0784Z" fill="#8F9093"/>
<path d="M6.83331 16.6666C7.84581 16.6666 8.66661 15.8458 8.66661 14.8333C8.66661 13.8208 7.84581 13 6.83331 13C5.8208 13 5 13.8208 5 14.8333C5 15.8458 5.8208 16.6666 6.83331 16.6666Z" fill="#8F9093"/>
</svg>
