<svg width="40" height="40" viewBox="0 0 40 40" fill="none" xmlns="http://www.w3.org/2000/svg">
<g clip-path="url(#clip0_1013_32430)">
<path d="M33.3517 33.4125C34.268 34.749 33.852 36.5827 32.4487 37.3929C31.0453 38.2032 29.2493 37.6466 28.55 36.1848L22.1143 22.7303C21.7484 21.9654 22.0328 21.0478 22.767 20.6239C23.5013 20.1999 24.4382 20.4125 24.9176 21.1117L33.3517 33.4125Z" fill="url(#paint0_linear_1013_32430)"/>
<path d="M12.1345 5.68791C12.2467 4.29232 13.7213 3.441 14.986 4.0416L18.256 5.59444C18.6678 5.79 19.134 5.839 19.5775 5.73334L23.0988 4.89429C24.4608 4.56977 25.7261 5.70906 25.5457 7.09749L25.0794 10.6873C25.0206 11.1393 25.1181 11.5979 25.3556 11.987L27.2418 15.0767C27.9713 16.2718 27.2788 17.8272 25.9025 18.0847L22.3444 18.7505C21.8963 18.8343 21.4903 19.0687 21.1936 19.4149L18.8379 22.1635C17.9268 23.2265 16.2335 23.0486 15.5633 21.8193L13.8306 18.641C13.6124 18.2407 13.264 17.927 12.8431 17.7518L9.50113 16.3608C8.20853 15.8228 7.85453 14.1574 8.81656 13.1402L11.3039 10.5101C11.6171 10.1789 11.8078 9.75061 11.8443 9.2962L12.1345 5.68791Z" fill="url(#paint1_linear_1013_32430)"/>
<path fill-rule="evenodd" clip-rule="evenodd" d="M34.378 11.1547C35.1084 11.4422 35.1084 12.473 34.378 12.7606L33.223 13.2156L32.7681 14.3676C32.4799 15.0962 31.4462 15.0962 31.1581 14.3676L30.7031 13.215L29.5481 12.7606C28.8178 12.4736 28.8178 11.4422 29.5481 11.1547L30.7031 10.7003L31.1581 9.54818C31.4462 8.81902 32.4799 8.81902 32.7681 9.54818L33.223 10.7003L34.378 11.1547Z" fill="url(#paint2_linear_1013_32430)"/>
<path fill-rule="evenodd" clip-rule="evenodd" d="M6.37804 6.15466C7.10836 6.44225 7.10836 7.47298 6.37804 7.76056L5.22305 8.21556L4.76805 9.36763C4.47989 10.0962 3.44623 10.0962 3.15807 9.36763L2.70308 8.21498L1.54809 7.76056C0.817763 7.47357 0.817763 6.44224 1.54809 6.15466L2.70308 5.70025L3.15807 4.54818C3.44623 3.81902 4.47989 3.81902 4.76805 4.54818L5.22305 5.70025L6.37804 6.15466Z" fill="url(#paint3_linear_1013_32430)"/>
</g>
<defs>
<linearGradient id="paint0_linear_1013_32430" x1="33.0872" y1="38.0722" x2="28.8481" y2="14.8875" gradientUnits="userSpaceOnUse">
<stop offset="0.66" stop-color="white"/>
<stop offset="1" stop-color="#C7C7C7"/>
</linearGradient>
<linearGradient id="paint1_linear_1013_32430" x1="11.1107" y1="2.26848" x2="23.0715" y2="29.5409" gradientUnits="userSpaceOnUse">
<stop offset="0.66" stop-color="white"/>
<stop offset="1" stop-color="#9C9C9C"/>
</linearGradient>
<linearGradient id="paint2_linear_1013_32430" x1="34.5" y1="12.002" x2="20.9258" y2="16.0005" gradientUnits="userSpaceOnUse">
<stop stop-color="#C7C7C7"/>
<stop offset="0.34" stop-color="white"/>
</linearGradient>
<linearGradient id="paint3_linear_1013_32430" x1="6.5" y1="6.50195" x2="-7.07422" y2="11.0005" gradientUnits="userSpaceOnUse">
<stop stop-color="#C7C7C7"/>
<stop offset="0.34" stop-color="white"/>
</linearGradient>
<clipPath id="clip0_1013_32430">
<rect width="40" height="40" fill="white"/>
</clipPath>
</defs>
</svg>
