<svg width="18" height="17" viewBox="0 0 18 17" fill="none" xmlns="http://www.w3.org/2000/svg">
<g clip-path="url(#clip0_438_20962)">
<path d="M11.0641 4.47363H1.96406C1.24609 4.47363 0.664062 5.05226 0.664062 5.76603V14.8128C0.664062 15.5266 1.24609 16.1052 1.96406 16.1052H11.0641C11.782 16.1052 12.3641 15.5266 12.3641 14.8128V5.76603C12.3641 5.05226 11.782 4.47363 11.0641 4.47363Z" stroke="#374151" stroke-width="1.5" stroke-linecap="round" stroke-linejoin="round"/>
<path d="M4.71523 9.84193C5.46082 9.84193 6.06523 9.24104 6.06523 8.49982C6.06523 7.7586 5.46082 7.15771 4.71523 7.15771C3.96965 7.15771 3.36523 7.7586 3.36523 8.49982C3.36523 9.24104 3.96965 9.84193 4.71523 9.84193Z" stroke="#374151" stroke-width="1.5" stroke-linecap="round" stroke-linejoin="round"/>
<path d="M12.3648 12.2199L10.3281 10.2215C10.0805 9.97869 9.74486 9.84229 9.39484 9.84229C9.04483 9.84229 8.70914 9.97869 8.4616 10.2215L2.46484 16.1054" stroke="#374151" stroke-width="1.5" stroke-linecap="round" stroke-linejoin="round"/>
<path d="M15.5137 1.34707e-07C15.6539 -1.75923e-07 15.7914 0.0391238 15.9104 0.112926C16.0294 0.186727 16.1252 0.292247 16.1869 0.417493L16.2229 0.50472L16.4852 1.26963L17.2552 1.53056C17.3957 1.57805 17.5189 1.66596 17.6092 1.78315C17.6994 1.90035 17.7527 2.04156 17.7621 2.18887C17.7716 2.33619 17.7369 2.48299 17.6624 2.61067C17.5879 2.73834 17.4769 2.84115 17.3436 2.90605L17.2552 2.94184L16.486 3.20277L16.2236 3.96842C16.1758 4.10815 16.0873 4.23062 15.9694 4.3203C15.8515 4.40999 15.7095 4.46285 15.5614 4.47219C15.4132 4.48153 15.2657 4.44693 15.1373 4.37278C15.009 4.29862 14.9057 4.18825 14.8405 4.05565L14.8045 3.96842L14.5421 3.20352L13.7722 2.94258C13.6316 2.8951 13.5084 2.80718 13.4182 2.68999C13.3279 2.57279 13.2747 2.43159 13.2652 2.28427C13.2557 2.13695 13.2904 1.99015 13.365 1.86248C13.4395 1.7348 13.5504 1.632 13.6837 1.56709L13.7722 1.53131L14.5413 1.27037L14.8037 0.50472C14.8543 0.357423 14.9499 0.229553 15.0772 0.139039C15.2046 0.0485254 15.3572 -9.34002e-05 15.5137 1.34707e-07Z" fill="#374151"/>
</g>
<defs>
<clipPath id="clip0_438_20962">
<rect width="18" height="17" fill="white"/>
</clipPath>
</defs>
</svg>
