<svg width="18" height="19" viewBox="0 0 18 19" fill="none" xmlns="http://www.w3.org/2000/svg">
<path fill-rule="evenodd" clip-rule="evenodd" d="M2.15146 1.8725L2.34313 2.2575L0.551458 4.76583C0.436918 4.92636 0.38302 5.12231 0.399346 5.31884C0.415673 5.51537 0.501166 5.69974 0.640625 5.83917L1.89063 7.08917C2.01431 7.21274 2.17373 7.29428 2.34631 7.32225C2.5189 7.35021 2.69591 7.32319 2.85229 7.245L3.89729 6.72333L4.47396 7.49167L2.74896 13.0133C2.57228 12.8851 2.40518 12.7442 2.24896 12.5917C2.0957 12.4362 1.88753 12.347 1.66921 12.3434C1.4509 12.3398 1.23989 12.422 1.08157 12.5723C0.923242 12.7227 0.830251 12.9292 0.822595 13.1474C0.814938 13.3656 0.893228 13.5781 1.04063 13.7392L1.57063 14.21C1.90146 14.4725 2.38729 14.8142 3.02729 15.1533C4.31313 15.8333 6.21563 16.5 8.72979 16.5C11.244 16.5 13.1473 15.8333 14.4323 15.1533C14.9456 14.884 15.4332 14.5682 15.889 14.21C16.0173 14.1075 16.4348 13.725 16.419 13.7392C16.5599 13.5909 16.6414 13.3959 16.6479 13.1914C16.6544 12.9869 16.5854 12.7872 16.4541 12.6303C16.3228 12.4734 16.1384 12.3702 15.936 12.3405C15.7336 12.3108 15.5273 12.3566 15.3565 12.4692L14.4981 8.17667C14.934 8.58417 15.4048 9.21417 15.9015 10.2058C15.9483 10.3071 16.0149 10.398 16.0975 10.4731C16.1801 10.5481 16.277 10.6058 16.3823 10.6428C16.4876 10.6797 16.5992 10.6951 16.7106 10.688C16.822 10.681 16.9308 10.6516 17.0307 10.6017C17.1305 10.5518 17.2193 10.4824 17.2917 10.3975C17.3642 10.3126 17.4189 10.2141 17.4525 10.1076C17.4862 10.0012 17.4981 9.88915 17.4876 9.77804C17.4771 9.66693 17.4444 9.55906 17.3915 9.46083C16.5115 7.7 15.5698 6.69667 14.519 6.17167C13.719 5.77167 12.8306 5.66667 11.9465 5.66667H8.94479C8.86147 5.41436 8.76721 5.16579 8.66229 4.92167C8.32146 4.12667 7.74813 3.09 6.81896 2.16083C5.85313 1.195 4.85813 0.808334 4.07479 0.6775C3.63063 0.604167 3.13729 0.580834 2.69396 0.691667C2.573 0.722032 2.4604 0.779159 2.36446 0.858835C2.26852 0.938511 2.19169 1.0387 2.13962 1.15203C2.08756 1.26535 2.06159 1.38892 2.06364 1.51361C2.06569 1.6383 2.0957 1.76095 2.15146 1.8725ZM13.8748 13.5583L12.764 8.00333C12.6523 7.44667 12.1206 7.33667 11.6323 7.33333H8.31313C7.91062 7.33333 7.57813 7.04333 7.49396 6.65583C7.40376 6.28697 7.2822 5.9265 7.13063 5.57833C6.84646 4.915 6.37813 4.07667 5.64063 3.33917C5.09646 2.795 4.57063 2.53 4.14396 2.40167C4.13171 2.55178 4.07901 2.69578 3.99146 2.81833L2.31813 5.16L2.64396 5.48583L3.77396 4.92167C3.94845 4.8344 4.14804 4.81112 4.33793 4.85589C4.52782 4.90067 4.69599 5.01064 4.81313 5.16667L6.06313 6.83333C6.14226 6.93899 6.19516 7.06193 6.21747 7.19204C6.23978 7.32214 6.23087 7.45568 6.19146 7.58167L4.22146 13.8858C4.59729 14.0608 5.02729 14.2308 5.51146 14.3767L6.69979 11.2075C6.75932 11.0487 6.86589 10.9118 7.00527 10.8152C7.14465 10.7185 7.31019 10.6667 7.47979 10.6667H10.8131C10.9827 10.6667 11.1483 10.7185 11.2876 10.8152C11.427 10.9118 11.5336 11.0487 11.5931 11.2075L12.6865 14.1217C13.1448 13.9425 13.5415 13.7475 13.8748 13.5583ZM11.084 14.5967L10.2356 12.3333H8.05729L7.15813 14.7308C7.67911 14.8004 8.20419 14.8346 8.72979 14.8333C9.60396 14.8333 10.3881 14.7417 11.084 14.5967Z" fill="#FAB83D"/>
</svg>
