<svg width="14" height="14" viewBox="0 0 14 14" fill="none" xmlns="http://www.w3.org/2000/svg">
<path d="M4.08268 1.16406C3.76052 1.16406 3.49935 1.42523 3.49935 1.7474V4.08073H2.33268C1.68835 4.08073 1.16602 4.60306 1.16602 5.2474V9.91406C1.16602 10.5584 1.68835 11.0807 2.33268 11.0807H3.49935V12.2474C3.49935 12.5696 3.76052 12.8307 4.08268 12.8307H9.91602C10.2382 12.8307 10.4993 12.5696 10.4993 12.2474V11.0807H11.666C12.3103 11.0807 12.8327 10.5584 12.8327 9.91406V5.2474C12.8327 4.60306 12.3103 4.08073 11.666 4.08073H10.4993V1.7474C10.4993 1.42523 10.2382 1.16406 9.91602 1.16406H4.08268ZM9.91602 8.16406H4.08268C3.76052 8.16406 3.49935 8.42523 3.49935 8.7474V9.91406H2.33268V5.2474H4.08268H9.91602H11.666V9.91406H10.4993V8.7474C10.4993 8.42523 10.2382 8.16406 9.91602 8.16406ZM9.33268 4.08073H4.66602V2.33073H9.33268V4.08073ZM2.91602 5.83073V6.9974H4.66602V5.83073H2.91602ZM9.33268 9.33073V11.6641H4.66602V9.33073H9.33268Z" fill="#444444"/>
</svg>
