<svg width="14" height="14" viewBox="0 0 14 14" fill="none" xmlns="http://www.w3.org/2000/svg">
<path d="M11.2427 10.7095C11.2427 10.1238 10.7679 9.64891 10.1821 9.64891C9.81336 9.64891 9.48867 9.83718 9.29862 10.1228C9.29073 10.1406 9.28224 10.1584 9.27221 10.1756C9.26208 10.193 9.25078 10.2095 9.23907 10.2253C9.16434 10.3705 9.12151 10.5349 9.12151 10.7095C9.12151 11.2953 9.59636 11.7701 10.1821 11.7701C10.7679 11.7701 11.2427 11.2953 11.2427 10.7095ZM4.87908 6.9974C4.87908 6.41164 4.40423 5.93679 3.81848 5.93679C3.23272 5.93679 2.75787 6.41164 2.75787 6.9974C2.75787 7.58315 3.23272 8.058 3.81848 8.058C4.40423 8.058 4.87908 7.58315 4.87908 6.9974ZM11.2427 3.28527C11.2427 2.69952 10.7679 2.22467 10.1821 2.22467C9.59636 2.22467 9.12151 2.69952 9.12151 3.28527C9.12151 3.87103 9.59636 4.34588 10.1821 4.34588C10.7679 4.34588 11.2427 3.87103 11.2427 3.28527ZM12.3033 3.28527C12.3033 4.45679 11.3536 5.40649 10.1821 5.40649C9.59267 5.40649 9.05952 5.16592 8.6751 4.77779L5.85942 6.42048C5.91118 6.60398 5.93969 6.79734 5.93969 6.9974C5.93969 7.19705 5.9115 7.3901 5.85994 7.57327L8.67717 9.21493C9.06144 8.82802 9.59372 8.5883 10.1821 8.5883C11.3536 8.5883 12.3033 9.538 12.3033 10.7095C12.3033 11.881 11.3536 12.8307 10.1821 12.8307C9.0106 12.8307 8.0609 11.881 8.0609 10.7095C8.0609 10.5088 8.08906 10.3146 8.14117 10.1305L5.32497 8.48939C4.94055 8.87752 4.40792 9.11861 3.81848 9.11861C2.64696 9.11861 1.69727 8.16891 1.69727 6.9974C1.69727 5.82588 2.64696 4.87618 3.81848 4.87618C4.40766 4.87618 4.94059 5.11654 5.32497 5.50436L8.14065 3.86167C8.089 3.67836 8.0609 3.48511 8.0609 3.28527C8.0609 2.11376 9.0106 1.16406 10.1821 1.16406C11.3536 1.16406 12.3033 2.11376 12.3033 3.28527Z" fill="#444444"/>
</svg>
