<svg width="18" height="18" viewBox="0 0 18 18" fill="none" xmlns="http://www.w3.org/2000/svg">
<path d="M2.25 12C2.0375 12 1.8595 11.928 1.716 11.784C1.5725 11.64 1.5005 11.462 1.5 11.25V3C1.5 2.5875 1.647 2.2345 1.941 1.941C2.235 1.6475 2.588 1.5005 3 1.5H12.75C12.9625 1.5 13.1407 1.572 13.2847 1.716C13.4287 1.86 13.5005 2.038 13.5 2.25C13.4995 2.462 13.4275 2.64025 13.284 2.78475C13.1405 2.92925 12.9625 3.001 12.75 3H3V11.25C3 11.4625 2.928 11.6408 2.784 11.7848C2.64 11.9288 2.462 12.0005 2.25 12ZM9 16.5C8.7875 16.5 8.6095 16.428 8.466 16.284C8.3225 16.14 8.2505 15.962 8.25 15.75V15H6C5.5875 15 5.2345 14.8533 4.941 14.5598C4.6475 14.2663 4.5005 13.913 4.5 13.5V6C4.5 5.5875 4.647 5.2345 4.941 4.941C5.235 4.6475 5.588 4.5005 6 4.5H15.75C16.1625 4.5 16.5158 4.647 16.8098 4.941C17.1038 5.235 17.2505 5.588 17.25 6V13.5C17.25 13.9125 17.1033 14.2658 16.8098 14.5598C16.5163 14.8538 16.163 15.0005 15.75 15H13.5V15.75C13.5 15.9625 13.428 16.1407 13.284 16.2847C13.14 16.4287 12.962 16.5005 12.75 16.5H9ZM6 13.5H15.75V6H6V13.5Z" fill="#374151"/>
</svg>
