<svg width="16" height="17" viewBox="0 0 16 17" fill="none" xmlns="http://www.w3.org/2000/svg">
<path d="M10.3945 5.83592L8.67065 4.11208V10.5026C8.67065 10.8708 8.37218 11.1693 8.00398 11.1693C7.63578 11.1693 7.33732 10.8708 7.33732 10.5026V4.11208L5.61343 5.83596C5.35308 6.09631 4.93097 6.09631 4.67062 5.83596C4.63808 5.80342 4.6096 5.76834 4.5852 5.73138C4.41434 5.47261 4.44282 5.12096 4.67062 4.89315L7.53258 2.0312C7.65758 1.90618 7.82718 1.83594 8.00398 1.83594C8.18078 1.83594 8.35038 1.90618 8.47538 2.0312L11.3373 4.89311C11.5977 5.15346 11.5977 5.57557 11.3373 5.83592C11.0769 6.09627 10.6549 6.09627 10.3945 5.83592Z" fill="#272937" fill-opacity="0.35"/>
<path d="M2.67057 9.83598C3.03877 9.83598 3.33724 10.1344 3.33724 10.5026V13.1693H12.6706V10.5026C12.6706 10.1344 12.9691 9.83598 13.3373 9.83598C13.7055 9.83598 14.0039 10.1344 14.0039 10.5026V13.1693C14.0039 13.9057 13.407 14.5026 12.6706 14.5026H3.33724C2.60086 14.5026 2.00391 13.9057 2.00391 13.1693V10.5026C2.00391 10.1344 2.30239 9.83598 2.67057 9.83598Z" fill="#272937" fill-opacity="0.35"/>
</svg>
