<svg width="16" height="16" viewBox="0 0 16 16" fill="none" xmlns="http://www.w3.org/2000/svg">
<path d="M9.5286 7.52827C9.78894 7.26792 10.2111 7.26792 10.4714 7.52827L11.8047 8.8616C12.0651 9.12195 12.0651 9.54406 11.8047 9.80441C11.5444 10.0648 11.1223 10.0648 10.8619 9.80441L10.6667 9.60915V14.6663C10.6667 15.0345 10.3682 15.333 10 15.333C9.63181 15.333 9.33333 15.0345 9.33333 14.6663V9.60915L9.13807 9.80441C8.87772 10.0648 8.45561 10.0648 8.19526 9.80441C7.93491 9.54406 7.93491 9.12195 8.19526 8.8616L9.5286 7.52827Z" fill="#B3B3B3"/>
<path d="M13.333 2C14.0694 2 14.6663 2.59695 14.6663 3.33333V10.6667C14.6663 11.403 14.0694 12 13.333 12H12.6663C12.2982 12 11.9997 11.7015 11.9997 11.3333C11.9997 10.9651 12.2982 10.6667 12.6663 10.6667H13.333V3.33333H2.66634V10.6667H5.99967C6.17649 10.6667 6.346 10.737 6.47103 10.862L8.0804 12.4714C8.3407 12.7317 8.34074 13.1537 8.0804 13.4141C7.83791 13.6565 7.45541 13.6728 7.19369 13.4635L7.19238 13.4687L5.72363 12H2.66634C1.92996 12 1.33301 11.403 1.33301 10.6667V3.33333C1.33301 2.59695 1.92996 2 2.66634 2H13.333Z" fill="#B3B3B3"/>
<path d="M6.66634 7.66667C7.03453 7.66667 7.33301 7.96514 7.33301 8.33333C7.33301 8.70152 7.03453 9 6.66634 9H4.66634C4.29815 9 3.99967 8.70152 3.99967 8.33333C3.99967 7.96514 4.29815 7.66667 4.66634 7.66667H6.66634Z" fill="#B3B3B3"/>
<path d="M11.333 5C11.7012 5 11.9997 5.29848 11.9997 5.66667C11.9997 6.03486 11.7012 6.33333 11.333 6.33333H4.66634C4.29815 6.33333 3.99967 6.03486 3.99967 5.66667C3.99967 5.29848 4.29815 5 4.66634 5H11.333Z" fill="#B3B3B3"/>
</svg>
