<svg width="24" height="24" viewBox="0 0 24 24" fill="none" xmlns="http://www.w3.org/2000/svg">
<path fill-rule="evenodd" clip-rule="evenodd" d="M0.0409771 13C0.549128 19.1595 5.70924 24 11.9999 24C18.6273 24 23.9999 18.6274 23.9999 12C23.9999 5.37258 18.6273 0 11.9999 0V0.00328048C11.9669 0.00110494 11.9335 0 11.8999 0C11.0715 0 10.3999 0.671573 10.3999 1.5C10.3999 2.32843 11.0715 3 11.8999 3C11.9335 3 11.9669 2.9989 11.9999 2.99672V3C16.9705 3 20.9999 7.02944 20.9999 12C20.9999 16.9706 16.9705 21 11.9999 21C7.38117 21 3.57505 17.5208 3.05937 13.0403C3.05973 13.0269 3.0599 13.0135 3.0599 13C3.0599 12.1716 2.38833 11.5 1.5599 11.5C0.731476 11.5 0.0599033 12.1716 0.0599033 13H0.0409771Z" fill="#DADDE5"/>
</svg>
