<svg width="177" height="86" viewBox="0 0 177 86" fill="none" xmlns="http://www.w3.org/2000/svg">
<rect x="20" y="22" width="66.5" height="18" rx="6" fill="#FFF0CB"/>
<path d="M43.3984 35.9961H42.332V25.4961H43.3984V35.9961ZM34.2344 33.1016C34.7148 32.8125 35.123 32.4219 35.459 31.9297C35.7988 31.4375 36.0527 30.8906 36.2207 30.2891C36.3926 29.6836 36.4805 29.0625 36.4844 28.4258V27.582H34.5508V26.6797H39.3555V27.582H37.5508V28.4258C37.5508 29.0352 37.6328 29.627 37.7969 30.2012C37.9648 30.7754 38.2129 31.2949 38.541 31.7598C38.873 32.2246 39.2773 32.5938 39.7539 32.8672L39.0859 33.6875C38.5977 33.3984 38.1797 33 37.832 32.4922C37.4883 31.9844 37.2207 31.4043 37.0293 30.752C36.8379 31.459 36.5625 32.0879 36.2031 32.6387C35.8438 33.1895 35.4141 33.6211 34.9141 33.9336L34.2344 33.1016ZM38.582 29.2109H40.2109V25.7188H41.2656V35.4688H40.2109V30.125H38.582V29.2109ZM52.6133 29.5273H49.5898V30.7461H53.832V31.6484H44.2578V30.7461H48.4883V29.5273H45.4766V25.9297H52.6133V29.5273ZM45.3242 32.6445H52.6602V35.9961H51.5352V33.5234H45.3242V32.6445ZM51.5117 28.6367V26.8086H46.5664V28.6367H51.5117Z" fill="#BDAA95"/>
<rect x="20" y="44" width="66.5" height="20" rx="6" fill="#FFF0CB"/>
<path d="M52.125 58.9961H51.0586V53.6172H49.7109V58.457H48.668V48.707H49.7109V52.7031H51.0586V48.4961H52.125V58.9961ZM43.6289 49.7383H44.7422V55.3457C45.8633 55.334 46.9375 55.2266 47.9648 55.0234L48.082 55.9961C47.3984 56.1172 46.75 56.2031 46.1367 56.2539C45.5234 56.3047 44.9141 56.3281 44.3086 56.3242H43.6289V49.7383ZM62.582 54.5195H53.0078V53.6172H55.3047V52.2051C54.8906 52.0371 54.5742 51.8223 54.3555 51.5605C54.1406 51.2988 54.0352 50.9961 54.0391 50.6523C54.0391 50.2422 54.1895 49.8887 54.4902 49.5918C54.7949 49.2949 55.2285 49.0703 55.791 48.918C56.3574 48.7617 57.0234 48.6836 57.7891 48.6836C58.5547 48.6836 59.2188 48.7617 59.7812 48.918C60.3438 49.0703 60.7773 49.2949 61.082 49.5918C61.3867 49.8887 61.5391 50.2422 61.5391 50.6523C61.5352 50.9961 61.4238 51.3008 61.2051 51.5664C60.9863 51.8281 60.6719 52.043 60.2617 52.2109V53.6172H62.582V54.5195ZM54.1445 57.0977C54.1445 56.6992 54.2891 56.3613 54.5781 56.084C54.8672 55.8066 55.2832 55.5957 55.8262 55.4512C56.373 55.3066 57.0273 55.2344 57.7891 55.2344C58.5391 55.2344 59.1855 55.3066 59.7285 55.4512C60.2715 55.5957 60.6875 55.8086 60.9766 56.0898C61.2656 56.3672 61.4102 56.7031 61.4102 57.0977C61.4102 57.4961 61.2656 57.8359 60.9766 58.1172C60.6875 58.3984 60.2715 58.6113 59.7285 58.7559C59.1895 58.9004 58.543 58.9727 57.7891 58.9727C57.0273 58.9727 56.373 58.9004 55.8262 58.7559C55.2832 58.6113 54.8672 58.3984 54.5781 58.1172C54.2891 57.8398 54.1445 57.5 54.1445 57.0977ZM55.1875 50.6523C55.1836 51 55.4102 51.2695 55.8672 51.4609C56.3242 51.6523 56.9648 51.75 57.7891 51.7539C58.6094 51.75 59.248 51.6523 59.7051 51.4609C60.166 51.2695 60.3945 51 60.3906 50.6523C60.3906 50.4219 60.2871 50.2227 60.0801 50.0547C59.873 49.8867 59.5742 49.7598 59.1836 49.6738C58.793 49.584 58.3281 49.5391 57.7891 49.5391C56.9688 49.543 56.3281 49.6426 55.8672 49.8379C55.4102 50.0293 55.1836 50.3008 55.1875 50.6523ZM55.2695 57.0977C55.2656 57.4258 55.4844 57.6797 55.9258 57.8594C56.3672 58.0352 56.9883 58.1211 57.7891 58.1172C58.582 58.125 59.1973 58.0391 59.6348 57.8594C60.0762 57.6797 60.2969 57.4258 60.2969 57.0977C60.2969 56.7773 60.0762 56.5293 59.6348 56.3535C59.1973 56.1777 58.582 56.0898 57.7891 56.0898C56.9844 56.0898 56.3613 56.1777 55.9199 56.3535C55.4824 56.5293 55.2656 56.7773 55.2695 57.0977ZM59.1602 53.6172V52.498C58.7383 52.5645 58.2812 52.5977 57.7891 52.5977C57.3203 52.5977 56.8672 52.5664 56.4297 52.5039V53.6172H59.1602Z" fill="#BDAA95"/>
<path d="M90.5 28.5C90.5 24.0817 94.0817 20.5 98.5 20.5H149C153.418 20.5 157 24.0817 157 28.5V57.5C157 61.9183 153.418 65.5 149 65.5H98.5C94.0817 65.5 90.5 61.9183 90.5 57.5V28.5Z" fill="#C6ECEB"/>
<path d="M119.4 34.5C119.895 34.5 120.378 34.6466 120.789 34.9213C121.2 35.196 121.521 35.5865 121.71 36.0433C121.899 36.5001 121.949 37.0028 121.852 37.4877C121.756 37.9727 121.518 38.4181 121.168 38.7678C120.818 39.1174 120.373 39.3555 119.888 39.452C119.403 39.5484 118.9 39.4989 118.444 39.3097C117.987 39.1205 117.596 38.8 117.322 38.3889C117.047 37.9778 116.9 37.4945 116.9 37C116.9 36.337 117.164 35.7011 117.632 35.2322C118.101 34.7634 118.737 34.5 119.4 34.5ZM134.33 52.255C134.286 52.3296 134.223 52.3915 134.148 52.4344C134.072 52.4774 133.987 52.5 133.9 52.5H113.9C113.813 52.5 113.727 52.477 113.651 52.4332C113.575 52.3895 113.512 52.3267 113.468 52.2509C113.424 52.1752 113.401 52.0892 113.4 52.0017C113.4 51.9141 113.423 51.828 113.466 51.752L117.466 44.752C117.504 44.6853 117.558 44.6283 117.621 44.5855C117.685 44.5427 117.758 44.5151 117.834 44.505C117.91 44.4929 117.988 44.4995 118.062 44.524C118.135 44.5486 118.201 44.5904 118.254 44.646L121.846 48.239L127.5 40.7C127.55 40.633 127.617 40.5798 127.693 40.5451C127.769 40.5104 127.853 40.4954 127.936 40.5015C128.02 40.5075 128.101 40.5345 128.171 40.5798C128.241 40.6252 128.299 40.6875 128.339 40.761L134.339 51.761C134.381 51.8371 134.402 51.9226 134.4 52.0092C134.398 52.0958 134.374 52.1805 134.33 52.255Z" fill="white"/>
</svg>
