<svg width="177" height="86" viewBox="0 0 177 86" fill="none" xmlns="http://www.w3.org/2000/svg">
<rect x="20" width="137" height="30" rx="6" fill="#FFF0CB"/>
<path d="M43.3984 19.9961H42.332V9.49609H43.3984V19.9961ZM34.2344 17.1016C34.7148 16.8125 35.123 16.4219 35.459 15.9297C35.7988 15.4375 36.0527 14.8906 36.2207 14.2891C36.3926 13.6836 36.4805 13.0625 36.4844 12.4258V11.582H34.5508V10.6797H39.3555V11.582H37.5508V12.4258C37.5508 13.0352 37.6328 13.627 37.7969 14.2012C37.9648 14.7754 38.2129 15.2949 38.541 15.7598C38.873 16.2246 39.2773 16.5938 39.7539 16.8672L39.0859 17.6875C38.5977 17.3984 38.1797 17 37.832 16.4922C37.4883 15.9844 37.2207 15.4043 37.0293 14.752C36.8379 15.459 36.5625 16.0879 36.2031 16.6387C35.8438 17.1895 35.4141 17.6211 34.9141 17.9336L34.2344 17.1016ZM38.582 13.2109H40.2109V9.71875H41.2656V19.4688H40.2109V14.125H38.582V13.2109ZM52.6133 13.5273H49.5898V14.7461H53.832V15.6484H44.2578V14.7461H48.4883V13.5273H45.4766V9.92969H52.6133V13.5273ZM45.3242 16.6445H52.6602V19.9961H51.5352V17.5234H45.3242V16.6445ZM51.5117 12.6367V10.8086H46.5664V12.6367H51.5117Z" fill="#BDAA95"/>
<rect x="20" y="34" width="137" height="52" rx="6" fill="#FFF0CB"/>
<path d="M87.375 64.9961H86.3086V59.6172H84.9609V64.457H83.918V54.707H84.9609V58.7031H86.3086V54.4961H87.375V64.9961ZM78.8789 55.7383H79.9922V61.3457C81.1133 61.334 82.1875 61.2266 83.2148 61.0234L83.332 61.9961C82.6484 62.1172 82 62.2031 81.3867 62.2539C80.7734 62.3047 80.1641 62.3281 79.5586 62.3242H78.8789V55.7383ZM97.832 60.5195H88.2578V59.6172H90.5547V58.2051C90.1406 58.0371 89.8242 57.8223 89.6055 57.5605C89.3906 57.2988 89.2852 56.9961 89.2891 56.6523C89.2891 56.2422 89.4395 55.8887 89.7402 55.5918C90.0449 55.2949 90.4785 55.0703 91.041 54.918C91.6074 54.7617 92.2734 54.6836 93.0391 54.6836C93.8047 54.6836 94.4688 54.7617 95.0312 54.918C95.5938 55.0703 96.0273 55.2949 96.332 55.5918C96.6367 55.8887 96.7891 56.2422 96.7891 56.6523C96.7852 56.9961 96.6738 57.3008 96.4551 57.5664C96.2363 57.8281 95.9219 58.043 95.5117 58.2109V59.6172H97.832V60.5195ZM89.3945 63.0977C89.3945 62.6992 89.5391 62.3613 89.8281 62.084C90.1172 61.8066 90.5332 61.5957 91.0762 61.4512C91.623 61.3066 92.2773 61.2344 93.0391 61.2344C93.7891 61.2344 94.4355 61.3066 94.9785 61.4512C95.5215 61.5957 95.9375 61.8086 96.2266 62.0898C96.5156 62.3672 96.6602 62.7031 96.6602 63.0977C96.6602 63.4961 96.5156 63.8359 96.2266 64.1172C95.9375 64.3984 95.5215 64.6113 94.9785 64.7559C94.4395 64.9004 93.793 64.9727 93.0391 64.9727C92.2773 64.9727 91.623 64.9004 91.0762 64.7559C90.5332 64.6113 90.1172 64.3984 89.8281 64.1172C89.5391 63.8398 89.3945 63.5 89.3945 63.0977ZM90.4375 56.6523C90.4336 57 90.6602 57.2695 91.1172 57.4609C91.5742 57.6523 92.2148 57.75 93.0391 57.7539C93.8594 57.75 94.498 57.6523 94.9551 57.4609C95.416 57.2695 95.6445 57 95.6406 56.6523C95.6406 56.4219 95.5371 56.2227 95.3301 56.0547C95.123 55.8867 94.8242 55.7598 94.4336 55.6738C94.043 55.584 93.5781 55.5391 93.0391 55.5391C92.2188 55.543 91.5781 55.6426 91.1172 55.8379C90.6602 56.0293 90.4336 56.3008 90.4375 56.6523ZM90.5195 63.0977C90.5156 63.4258 90.7344 63.6797 91.1758 63.8594C91.6172 64.0352 92.2383 64.1211 93.0391 64.1172C93.832 64.125 94.4473 64.0391 94.8848 63.8594C95.3262 63.6797 95.5469 63.4258 95.5469 63.0977C95.5469 62.7773 95.3262 62.5293 94.8848 62.3535C94.4473 62.1777 93.832 62.0898 93.0391 62.0898C92.2344 62.0898 91.6113 62.1777 91.1699 62.3535C90.7324 62.5293 90.5156 62.7773 90.5195 63.0977ZM94.4102 59.6172V58.498C93.9883 58.5645 93.5312 58.5977 93.0391 58.5977C92.5703 58.5977 92.1172 58.5664 91.6797 58.5039V59.6172H94.4102Z" fill="#BDAA95"/>
</svg>
