<svg width="178" height="86" viewBox="0 0 178 86" fill="none" xmlns="http://www.w3.org/2000/svg">
<path d="M20.3999 28.5C20.3999 24.0817 23.9816 20.5 28.3999 20.5H78.8999C83.3182 20.5 86.8999 24.0817 86.8999 28.5V57.5C86.8999 61.9183 83.3182 65.5 78.8999 65.5H28.3999C23.9816 65.5 20.3999 61.9183 20.3999 57.5V28.5Z" fill="#C6ECEB"/>
<path d="M49.3001 34.5C49.7946 34.5 50.2779 34.6466 50.6891 34.9213C51.1002 35.196 51.4206 35.5865 51.6098 36.0433C51.7991 36.5001 51.8486 37.0028 51.7521 37.4877C51.6556 37.9727 51.4175 38.4181 51.0679 38.7678C50.7183 39.1174 50.2728 39.3555 49.7879 39.452C49.3029 39.5484 48.8002 39.4989 48.3434 39.3097C47.8866 39.1205 47.4962 38.8 47.2215 38.3889C46.9468 37.9778 46.8001 37.4945 46.8001 37C46.8001 36.337 47.0635 35.7011 47.5324 35.2322C48.0012 34.7634 48.6371 34.5 49.3001 34.5ZM64.2301 52.255C64.1859 52.3296 64.123 52.3915 64.0476 52.4344C63.9722 52.4774 63.8869 52.5 63.8001 52.5H43.8001C43.7126 52.5 43.6266 52.477 43.5507 52.4332C43.4748 52.3895 43.4118 52.3267 43.3678 52.2509C43.3239 52.1752 43.3006 52.0892 43.3003 52.0017C43.3 51.9141 43.3227 51.828 43.3661 51.752L47.3661 44.752C47.4044 44.6853 47.4574 44.6283 47.5213 44.5855C47.5851 44.5427 47.6579 44.5151 47.7341 44.505C47.8103 44.4929 47.8883 44.4995 47.9614 44.524C48.0345 44.5486 48.1007 44.5904 48.1541 44.646L51.7461 48.239L57.4001 40.7C57.4504 40.633 57.5167 40.5798 57.5929 40.5451C57.6691 40.5104 57.7528 40.4954 57.8363 40.5015C57.9198 40.5075 58.0004 40.5345 58.0708 40.5798C58.1412 40.6252 58.1991 40.6875 58.2391 40.761L64.2391 51.761C64.2805 51.8371 64.3015 51.9226 64.2999 52.0092C64.2983 52.0958 64.2743 52.1805 64.2301 52.255Z" fill="white"/>
<rect x="90.8999" y="22" width="66.5" height="18" rx="6" fill="#FFF0CB"/>
<path d="M114.298 35.9961H113.232V25.4961H114.298V35.9961ZM105.134 33.1016C105.615 32.8125 106.023 32.4219 106.359 31.9297C106.699 31.4375 106.953 30.8906 107.121 30.2891C107.292 29.6836 107.38 29.0625 107.384 28.4258V27.582H105.451V26.6797H110.255V27.582H108.451V28.4258C108.451 29.0352 108.533 29.627 108.697 30.2012C108.865 30.7754 109.113 31.2949 109.441 31.7598C109.773 32.2246 110.177 32.5938 110.654 32.8672L109.986 33.6875C109.498 33.3984 109.08 33 108.732 32.4922C108.388 31.9844 108.121 31.4043 107.929 30.752C107.738 31.459 107.462 32.0879 107.103 32.6387C106.744 33.1895 106.314 33.6211 105.814 33.9336L105.134 33.1016ZM109.482 29.2109H111.111V25.7188H112.166V35.4688H111.111V30.125H109.482V29.2109ZM123.513 29.5273H120.49V30.7461H124.732V31.6484H115.158V30.7461H119.388V29.5273H116.376V25.9297H123.513V29.5273ZM116.224 32.6445H123.56V35.9961H122.435V33.5234H116.224V32.6445ZM122.412 28.6367V26.8086H117.466V28.6367H122.412Z" fill="#BDAA95"/>
<rect x="90.8999" y="44" width="66.5" height="20" rx="6" fill="#FFF0CB"/>
<path d="M123.025 58.9961H121.958V53.6172H120.611V58.457H119.568V48.707H120.611V52.7031H121.958V48.4961H123.025V58.9961ZM114.529 49.7383H115.642V55.3457C116.763 55.334 117.837 55.2266 118.865 55.0234L118.982 55.9961C118.298 56.1172 117.65 56.2031 117.037 56.2539C116.423 56.3047 115.814 56.3281 115.208 56.3242H114.529V49.7383ZM133.482 54.5195H123.908V53.6172H126.205V52.2051C125.791 52.0371 125.474 51.8223 125.255 51.5605C125.041 51.2988 124.935 50.9961 124.939 50.6523C124.939 50.2422 125.089 49.8887 125.39 49.5918C125.695 49.2949 126.128 49.0703 126.691 48.918C127.257 48.7617 127.923 48.6836 128.689 48.6836C129.455 48.6836 130.119 48.7617 130.681 48.918C131.244 49.0703 131.677 49.2949 131.982 49.5918C132.287 49.8887 132.439 50.2422 132.439 50.6523C132.435 50.9961 132.324 51.3008 132.105 51.5664C131.886 51.8281 131.572 52.043 131.162 52.2109V53.6172H133.482V54.5195ZM125.044 57.0977C125.044 56.6992 125.189 56.3613 125.478 56.084C125.767 55.8066 126.183 55.5957 126.726 55.4512C127.273 55.3066 127.927 55.2344 128.689 55.2344C129.439 55.2344 130.085 55.3066 130.628 55.4512C131.171 55.5957 131.587 55.8086 131.876 56.0898C132.166 56.3672 132.31 56.7031 132.31 57.0977C132.31 57.4961 132.166 57.8359 131.876 58.1172C131.587 58.3984 131.171 58.6113 130.628 58.7559C130.089 58.9004 129.443 58.9727 128.689 58.9727C127.927 58.9727 127.273 58.9004 126.726 58.7559C126.183 58.6113 125.767 58.3984 125.478 58.1172C125.189 57.8398 125.044 57.5 125.044 57.0977ZM126.087 50.6523C126.083 51 126.31 51.2695 126.767 51.4609C127.224 51.6523 127.865 51.75 128.689 51.7539C129.509 51.75 130.148 51.6523 130.605 51.4609C131.066 51.2695 131.294 51 131.291 50.6523C131.291 50.4219 131.187 50.2227 130.98 50.0547C130.773 49.8867 130.474 49.7598 130.083 49.6738C129.693 49.584 129.228 49.5391 128.689 49.5391C127.869 49.543 127.228 49.6426 126.767 49.8379C126.31 50.0293 126.083 50.3008 126.087 50.6523ZM126.169 57.0977C126.166 57.4258 126.384 57.6797 126.826 57.8594C127.267 58.0352 127.888 58.1211 128.689 58.1172C129.482 58.125 130.097 58.0391 130.535 57.8594C130.976 57.6797 131.197 57.4258 131.197 57.0977C131.197 56.7773 130.976 56.5293 130.535 56.3535C130.097 56.1777 129.482 56.0898 128.689 56.0898C127.884 56.0898 127.261 56.1777 126.82 56.3535C126.382 56.5293 126.166 56.7773 126.169 57.0977ZM130.06 53.6172V52.498C129.638 52.5645 129.181 52.5977 128.689 52.5977C128.22 52.5977 127.767 52.5664 127.33 52.5039V53.6172H130.06Z" fill="#BDAA95"/>
</svg>
