<svg width="178" height="86" viewBox="0 0 178 86" fill="none" xmlns="http://www.w3.org/2000/svg">
<path d="M20.2002 28.5C20.2002 24.0817 23.7819 20.5 28.2002 20.5H78.7002C83.1185 20.5 86.7002 24.0817 86.7002 28.5V57.5C86.7002 61.9183 83.1185 65.5 78.7002 65.5H28.2002C23.7819 65.5 20.2002 61.9183 20.2002 57.5V28.5Z" fill="#C6ECEB"/>
<path d="M49.1004 34.5C49.5949 34.5 50.0782 34.6466 50.4894 34.9213C50.9005 35.196 51.2209 35.5865 51.4101 36.0433C51.5993 36.5001 51.6489 37.0028 51.5524 37.4877C51.4559 37.9727 51.2178 38.4181 50.8682 38.7678C50.5186 39.1174 50.0731 39.3555 49.5882 39.452C49.1032 39.5484 48.6005 39.4989 48.1437 39.3097C47.6869 39.1205 47.2965 38.8 47.0218 38.3889C46.747 37.9778 46.6004 37.4945 46.6004 37C46.6004 36.337 46.8638 35.7011 47.3327 35.2322C47.8015 34.7634 48.4374 34.5 49.1004 34.5ZM64.0304 52.255C63.9862 52.3296 63.9233 52.3915 63.8479 52.4344C63.7725 52.4774 63.6872 52.5 63.6004 52.5H43.6004C43.5129 52.5 43.4268 52.477 43.351 52.4332C43.2751 52.3895 43.2121 52.3267 43.1681 52.2509C43.1242 52.1752 43.1009 52.0892 43.1006 52.0017C43.1003 51.9141 43.123 51.828 43.1664 51.752L47.1664 44.752C47.2047 44.6853 47.2577 44.6283 47.3216 44.5855C47.3854 44.5427 47.4582 44.5151 47.5344 44.505C47.6106 44.4929 47.6886 44.4995 47.7617 44.524C47.8348 44.5486 47.9009 44.5904 47.9544 44.646L51.5464 48.239L57.2004 40.7C57.2507 40.633 57.317 40.5798 57.3932 40.5451C57.4694 40.5104 57.5531 40.4954 57.6366 40.5015C57.7201 40.5075 57.8007 40.5345 57.8711 40.5798C57.9415 40.6252 57.9994 40.6875 58.0394 40.761L64.0394 51.761C64.0808 51.8371 64.1018 51.9226 64.1002 52.0092C64.0986 52.0958 64.0746 52.1805 64.0304 52.255Z" fill="white"/>
<path d="M90.7002 28.5C90.7002 24.0817 94.2819 20.5 98.7002 20.5H149.2C153.618 20.5 157.2 24.0817 157.2 28.5V57.5C157.2 61.9183 153.618 65.5 149.2 65.5H98.7002C94.2819 65.5 90.7002 61.9183 90.7002 57.5V28.5Z" fill="#C6ECEB"/>
<path d="M119.6 34.5C120.095 34.5 120.578 34.6466 120.989 34.9213C121.4 35.196 121.721 35.5865 121.91 36.0433C122.099 36.5001 122.149 37.0028 122.052 37.4877C121.956 37.9727 121.718 38.4181 121.368 38.7678C121.019 39.1174 120.573 39.3555 120.088 39.452C119.603 39.5484 119.101 39.4989 118.644 39.3097C118.187 39.1205 117.796 38.8 117.522 38.3889C117.247 37.9778 117.1 37.4945 117.1 37C117.1 36.337 117.364 35.7011 117.833 35.2322C118.301 34.7634 118.937 34.5 119.6 34.5ZM134.53 52.255C134.486 52.3296 134.423 52.3915 134.348 52.4344C134.272 52.4774 134.187 52.5 134.1 52.5H114.1C114.013 52.5 113.927 52.477 113.851 52.4332C113.775 52.3895 113.712 52.3267 113.668 52.2509C113.624 52.1752 113.601 52.0892 113.601 52.0017C113.6 51.9141 113.623 51.828 113.666 51.752L117.666 44.752C117.705 44.6853 117.758 44.6283 117.822 44.5855C117.885 44.5427 117.958 44.5151 118.034 44.505C118.111 44.4929 118.189 44.4995 118.262 44.524C118.335 44.5486 118.401 44.5904 118.454 44.646L122.046 48.239L127.7 40.7C127.751 40.633 127.817 40.5798 127.893 40.5451C127.969 40.5104 128.053 40.4954 128.137 40.5015C128.22 40.5075 128.301 40.5345 128.371 40.5798C128.442 40.6252 128.499 40.6875 128.539 40.761L134.539 51.761C134.581 51.8371 134.602 51.9226 134.6 52.0092C134.599 52.0958 134.575 52.1805 134.53 52.255Z" fill="white"/>
</svg>
