<svg width="178" height="86" viewBox="0 0 178 86" fill="none" xmlns="http://www.w3.org/2000/svg">
<path d="M20.6001 8C20.6001 3.58172 24.1818 0 28.6001 0H149.6C154.018 0 157.6 3.58172 157.6 8V78C157.6 82.4183 154.018 86 149.6 86H28.6001C24.1818 86 20.6001 82.4183 20.6001 78V8Z" fill="#C6ECEB"/>
<path d="M85.5003 34C85.9948 34 86.4781 34.1466 86.8893 34.4213C87.3004 34.696 87.6208 35.0865 87.81 35.5433C87.9992 36.0001 88.0488 36.5028 87.9523 36.9877C87.8558 37.4727 87.6177 37.9181 87.2681 38.2678C86.9185 38.6174 86.473 38.8555 85.9881 38.952C85.5031 39.0484 85.0004 38.9989 84.5436 38.8097C84.0868 38.6205 83.6964 38.3 83.4217 37.8889C83.1469 37.4778 83.0003 36.9945 83.0003 36.5C83.0003 35.837 83.2637 35.2011 83.7326 34.7322C84.2014 34.2634 84.8373 34 85.5003 34ZM100.43 51.755C100.386 51.8296 100.323 51.8915 100.248 51.9344C100.172 51.9774 100.087 52 100 52H80.0003C79.9128 52 79.8268 51.977 79.7509 51.9332C79.675 51.8895 79.612 51.8267 79.568 51.7509C79.5241 51.6752 79.5008 51.5892 79.5005 51.5017C79.5002 51.4141 79.5229 51.328 79.5663 51.252L83.5663 44.252C83.6046 44.1853 83.6576 44.1283 83.7215 44.0855C83.7853 44.0427 83.8581 44.0151 83.9343 44.005C84.0105 43.9929 84.0885 43.9995 84.1616 44.024C84.2347 44.0486 84.3008 44.0904 84.3543 44.146L87.9463 47.739L93.6003 40.2C93.6506 40.133 93.7169 40.0798 93.7931 40.0451C93.8693 40.0104 93.953 39.9954 94.0365 40.0015C94.12 40.0075 94.2006 40.0345 94.271 40.0798C94.3414 40.1252 94.3993 40.1875 94.4393 40.261L100.439 51.261C100.481 51.3371 100.502 51.4226 100.5 51.5092C100.499 51.5958 100.474 51.6805 100.43 51.755Z" fill="white"/>
</svg>
