<svg width="178" height="86" viewBox="0 0 178 86" fill="none" xmlns="http://www.w3.org/2000/svg">
<path d="M20.7998 34C20.7998 29.5817 24.3815 26 28.7998 26H55.7998C60.2181 26 63.7998 29.5817 63.7998 34V52C63.7998 56.4183 60.2181 60 55.7998 60H28.7998C24.3815 60 20.7998 56.4183 20.7998 52V34Z" fill="#C6ECEB"/>
<path d="M38.7 34C39.1945 34 39.6778 34.1466 40.089 34.4213C40.5001 34.696 40.8205 35.0865 41.0097 35.5433C41.199 36.0001 41.2485 36.5028 41.152 36.9877C41.0555 37.4727 40.8174 37.9181 40.4678 38.2678C40.1182 38.6174 39.6727 38.8555 39.1878 38.952C38.7028 39.0484 38.2001 38.9989 37.7433 38.8097C37.2865 38.6205 36.8961 38.3 36.6214 37.8889C36.3467 37.4778 36.2 36.9945 36.2 36.5C36.2 35.837 36.4634 35.2011 36.9323 34.7322C37.4011 34.2634 38.037 34 38.7 34ZM53.63 51.755C53.5858 51.8296 53.5229 51.8915 53.4475 51.9344C53.3721 51.9774 53.2868 52 53.2 52H33.2C33.1125 52 33.0265 51.977 32.9506 51.9332C32.8747 51.8895 32.8117 51.8267 32.7677 51.7509C32.7238 51.6752 32.7005 51.5892 32.7002 51.5017C32.6999 51.4141 32.7226 51.328 32.766 51.252L36.766 44.252C36.8043 44.1853 36.8573 44.1283 36.9212 44.0855C36.985 44.0427 37.0578 44.0151 37.134 44.005C37.2102 43.9929 37.2882 43.9995 37.3613 44.024C37.4344 44.0486 37.5006 44.0904 37.554 44.146L41.146 47.739L46.8 40.2C46.8503 40.133 46.9166 40.0798 46.9928 40.0451C47.069 40.0104 47.1527 39.9954 47.2362 40.0015C47.3197 40.0075 47.4003 40.0345 47.4707 40.0798C47.5411 40.1252 47.599 40.1875 47.639 40.261L53.639 51.261C53.6804 51.3371 53.7014 51.4226 53.6998 51.5092C53.6982 51.5958 53.6742 51.6805 53.63 51.755Z" fill="white"/>
<path d="M67.7998 34C67.7998 29.5817 71.3815 26 75.7998 26H102.8C107.218 26 110.8 29.5817 110.8 34V52C110.8 56.4183 107.218 60 102.8 60H75.7998C71.3815 60 67.7998 56.4183 67.7998 52V34Z" fill="#C6ECEB"/>
<path d="M85.7 34C86.1945 34 86.6778 34.1466 87.089 34.4213C87.5001 34.696 87.8205 35.0865 88.0097 35.5433C88.199 36.0001 88.2485 36.5028 88.152 36.9877C88.0555 37.4727 87.8174 37.9181 87.4678 38.2678C87.1182 38.6174 86.6727 38.8555 86.1878 38.952C85.7028 39.0484 85.2001 38.9989 84.7433 38.8097C84.2865 38.6205 83.8961 38.3 83.6214 37.8889C83.3467 37.4778 83.2 36.9945 83.2 36.5C83.2 35.837 83.4634 35.2011 83.9323 34.7322C84.4011 34.2634 85.037 34 85.7 34ZM100.63 51.755C100.586 51.8296 100.523 51.8915 100.447 51.9344C100.372 51.9774 100.287 52 100.2 52H80.2C80.1125 52 80.0265 51.977 79.9506 51.9332C79.8747 51.8895 79.8117 51.8267 79.7677 51.7509C79.7238 51.6752 79.7005 51.5892 79.7002 51.5017C79.6999 51.4141 79.7226 51.328 79.766 51.252L83.766 44.252C83.8043 44.1853 83.8573 44.1283 83.9212 44.0855C83.985 44.0427 84.0578 44.0151 84.134 44.005C84.2102 43.9929 84.2882 43.9995 84.3613 44.024C84.4344 44.0486 84.5006 44.0904 84.554 44.146L88.146 47.739L93.8 40.2C93.8503 40.133 93.9166 40.0798 93.9928 40.0451C94.069 40.0104 94.1527 39.9954 94.2362 40.0015C94.3197 40.0075 94.4003 40.0345 94.4707 40.0798C94.5411 40.1252 94.599 40.1875 94.639 40.261L100.639 51.261C100.68 51.3371 100.701 51.4226 100.7 51.5092C100.698 51.5958 100.674 51.6805 100.63 51.755Z" fill="white"/>
<path d="M114.8 34C114.8 29.5817 118.382 26 122.8 26H149.8C154.218 26 157.8 29.5817 157.8 34V52C157.8 56.4183 154.218 60 149.8 60H122.8C118.382 60 114.8 56.4183 114.8 52V34Z" fill="#C6ECEB"/>
<path d="M132.7 34C133.194 34 133.678 34.1466 134.089 34.4213C134.5 34.696 134.821 35.0865 135.01 35.5433C135.199 36.0001 135.248 36.5028 135.152 36.9877C135.056 37.4727 134.817 37.9181 134.468 38.2678C134.118 38.6174 133.673 38.8555 133.188 38.952C132.703 39.0484 132.2 38.9989 131.743 38.8097C131.287 38.6205 130.896 38.3 130.621 37.8889C130.347 37.4778 130.2 36.9945 130.2 36.5C130.2 35.837 130.463 35.2011 130.932 34.7322C131.401 34.2634 132.037 34 132.7 34ZM147.63 51.755C147.586 51.8296 147.523 51.8915 147.447 51.9344C147.372 51.9774 147.287 52 147.2 52H127.2C127.112 52 127.026 51.977 126.951 51.9332C126.875 51.8895 126.812 51.8267 126.768 51.7509C126.724 51.6752 126.7 51.5892 126.7 51.5017C126.7 51.4141 126.723 51.328 126.766 51.252L130.766 44.252C130.804 44.1853 130.857 44.1283 130.921 44.0855C130.985 44.0427 131.058 44.0151 131.134 44.005C131.21 43.9929 131.288 43.9995 131.361 44.024C131.434 44.0486 131.501 44.0904 131.554 44.146L135.146 47.739L140.8 40.2C140.85 40.133 140.917 40.0798 140.993 40.0451C141.069 40.0104 141.153 39.9954 141.236 40.0015C141.32 40.0075 141.4 40.0345 141.471 40.0798C141.541 40.1252 141.599 40.1875 141.639 40.261L147.639 51.261C147.68 51.3371 147.701 51.4226 147.7 51.5092C147.698 51.5958 147.674 51.6805 147.63 51.755Z" fill="white"/>
</svg>
