<svg width="24" height="24" viewBox="0 0 24 24" fill="none" xmlns="http://www.w3.org/2000/svg">
<path d="M15.5907 7.99997L13.005 5.41422V15C13.005 15.5522 12.5573 16 12.005 16C11.4527 16 11.005 15.5522 11.005 15V5.41422L8.41917 8.00003C8.02865 8.39056 7.39548 8.39056 7.00496 8.00003C6.95614 7.95122 6.91343 7.89861 6.87682 7.84316C6.62054 7.45501 6.66325 6.92753 7.00496 6.58582L11.2979 2.29289C11.4854 2.10536 11.7398 2 12.005 2C12.2702 2 12.5246 2.10536 12.7121 2.29289L17.005 6.58576C17.3955 6.97628 17.3955 7.60945 17.005 7.99997C16.6144 8.3905 15.9813 8.3905 15.5907 7.99997Z" fill="#272937" fill-opacity="0.35"/>
<path d="M4.00488 14.0001C4.55717 14.0001 5.00488 14.4478 5.00488 15.0001V19.0001H19.0049V15.0001C19.0049 14.4478 19.4526 14.0001 20.0049 14.0001C20.5572 14.0001 21.0049 14.4478 21.0049 15.0001V19.0001C21.0049 20.1047 20.1095 21.0001 19.0049 21.0001H5.00488C3.90031 21.0001 3.00488 20.1047 3.00488 19.0001V15.0001C3.00488 14.4478 3.4526 14.0001 4.00488 14.0001Z" fill="#272937" fill-opacity="0.35"/>
</svg>
