<svg width="36" height="36" viewBox="0 0 36 36" fill="none" xmlns="http://www.w3.org/2000/svg">
<g clip-path="url(#clip0_3821_212662)">
<circle cx="18" cy="18" r="18" fill="#F5F8FA"/>
<path d="M13 26H23" stroke="white" stroke-width="1.2" stroke-linecap="round"/>
<path d="M15.7628 18.5504C16.8392 19.1599 17.3778 19.4647 17.9701 19.4647C18.5617 19.4647 19.1003 19.1615 20.1783 18.5545L27.039 14.6923C27.1906 14.6067 27.3169 14.4829 27.4057 14.3338C27.4931 14.1855 27.5393 14.0166 27.5393 13.8445C27.5393 13.6724 27.4931 13.5034 27.4057 13.3552C27.3171 13.2056 27.1906 13.0819 27.039 12.9967L20.1767 9.13199C19.0995 8.52577 18.5609 8.22266 17.9701 8.22266C17.3786 8.22266 16.84 8.52658 15.7636 9.13443L9.86763 12.4597L9.77393 12.5127C8.78868 13.0766 7.96664 13.8866 7.38815 14.8634C6.81602 15.831 6.50964 16.9326 6.5 18.0567V18.2685C6.50993 19.392 6.8163 20.493 7.38815 21.4601C7.96516 22.4352 8.78486 23.2442 9.76741 23.8084C9.78941 23.8223 9.81385 23.8353 9.86111 23.8622L13.5481 25.9481C15.7058 27.1679 16.7846 27.7774 17.9701 27.7782C19.1541 27.7782 20.2337 27.1695 22.3921 25.9506L26.2894 23.7498C27.3682 23.1411 27.9076 22.8364 28.2042 22.3336C28.5 21.8325 28.5 21.223 28.5 20.0041V17.6435C28.5 17.4806 28.456 17.3192 28.3721 17.1783C28.2879 17.0363 28.1679 16.9188 28.0241 16.8377C27.879 16.7556 27.7152 16.7124 27.5485 16.7121C27.3818 16.7118 27.2178 16.7545 27.0724 16.8361L19.071 21.3404C18.5332 21.6435 18.2643 21.795 17.9693 21.795C17.6744 21.795 17.4055 21.6443 16.8677 21.3412L11.4541 18.297C11.1819 18.1447 11.0467 18.0672 10.9367 18.0542C10.816 18.039 10.6936 18.0633 10.5879 18.1235C10.4834 18.1828 10.4015 18.2751 10.3549 18.3858C10.3133 18.4861 10.3141 18.6392 10.3158 18.9464C10.3166 19.1713 10.3174 19.2846 10.3394 19.3889C10.3875 19.6203 10.5121 19.8305 10.6939 19.9861C10.7753 20.0562 10.8756 20.1124 11.0752 20.2249L16.8644 23.498C17.4039 23.8035 17.6736 23.9559 17.9701 23.9559C18.2659 23.9559 18.5356 23.8035 19.075 23.4996L26.1721 19.4924C26.3554 19.3881 26.4475 19.3367 26.5167 19.375C26.5852 19.4141 26.5852 19.5184 26.5852 19.7262V20.7952C26.5852 21.1 26.5852 21.2515 26.5119 21.3778C26.4377 21.5033 26.3033 21.5791 26.0327 21.7323L20.1816 25.0364C19.1019 25.6458 18.5625 25.9506 17.9701 25.9498C17.377 25.9498 16.8376 25.6442 15.7587 25.0339L10.2864 21.9376L10.2473 21.9156C9.68653 21.5952 9.21872 21.1344 8.88985 20.5785C8.56435 20.0271 8.39088 19.3993 8.38711 18.759L8.3863 18.715V17.7315C8.3863 17.0137 8.77741 16.3504 9.41215 15.9895C9.68913 15.8324 10.002 15.7497 10.3205 15.7494C10.6389 15.7491 10.9519 15.8313 11.2292 15.9878L15.7628 18.5504Z" fill="url(#paint0_linear_3821_212662)"/>
</g>
<defs>
<linearGradient id="paint0_linear_3821_212662" x1="17" y1="3.5" x2="17.5" y2="27.7782" gradientUnits="userSpaceOnUse">
<stop stop-color="#FFD800"/>
<stop offset="1" stop-color="#F98917"/>
</linearGradient>
<clipPath id="clip0_3821_212662">
<rect width="36" height="36" fill="white"/>
</clipPath>
</defs>
</svg>
