<svg width="36" height="36" viewBox="0 0 36 36" fill="none" xmlns="http://www.w3.org/2000/svg">
<g clip-path="url(#clip0_3821_212627)">
<circle cx="18" cy="18" r="18" fill="#F5F8FA"/>
<path fill-rule="evenodd" clip-rule="evenodd" d="M10.316 11.8172C10.316 10.2613 11.6495 9 13.2944 9H25.0218C26.6667 9 28.0002 10.2613 28.0002 11.8172V20.0775C28.0002 21.3823 27.0625 22.4799 25.7897 22.8002V15.133C25.7897 13.5771 24.4562 12.3158 22.8113 12.3158H11.0839C10.8184 12.3158 10.561 12.3486 10.316 12.4103V11.8172Z" fill="#FBB347"/>
<path d="M7 16.2391C7 14.6832 8.33347 13.4219 9.97839 13.4219H21.7058C23.3507 13.4219 24.6842 14.6832 24.6842 16.2391V24.4994C24.6842 26.0553 23.3507 27.3166 21.7058 27.3166H9.97839C8.33347 27.3166 7 26.0553 7 24.4994L7 16.2391Z" fill="url(#paint0_linear_3821_212627)"/>
<path d="M8.26074 17.3227C8.26074 15.8652 9.2866 14.6836 10.5521 14.6836H21.1273C22.3928 14.6836 23.4186 15.8652 23.4186 17.3227V23.4129C23.4186 24.8705 22.3928 26.052 21.1273 26.052H10.5521C9.2866 26.052 8.26074 24.8705 8.26074 23.4129V17.3227Z" fill="#FEFCF4"/>
<path opacity="0.8" d="M20.8904 17.4842L20.2962 16.0977L19.702 17.4842L18.3154 18.0784L19.702 18.6727L20.2962 20.0592L20.8904 18.6727L22.277 18.0784L20.8904 17.4842Z" fill="#FA9016"/>
<path opacity="0.8" d="M13.1017 19.6136C13.6487 19.6136 14.0921 19.1702 14.0921 18.6232C14.0921 18.0762 13.6487 17.6328 13.1017 17.6328C12.5547 17.6328 12.1113 18.0762 12.1113 18.6232C12.1113 19.1702 12.5547 19.6136 13.1017 19.6136Z" fill="#FA9016"/>
<path opacity="0.8" d="M19.2601 22.6779L17.0317 18.7163C16.9899 18.6418 16.9129 18.5945 16.8277 18.5903C16.743 18.5851 16.6611 18.6264 16.6125 18.6968L14.553 21.6717L13.2774 20.396C13.2249 20.3438 13.1536 20.3188 13.0778 20.3247C13.004 20.3319 12.9374 20.372 12.8963 20.4337L11.4107 22.6621C11.3602 22.7381 11.3553 22.8356 11.3983 22.9161C11.4414 22.9966 11.5254 23.0468 11.6167 23.0468H19.0447C19.1326 23.0468 19.2141 23.0003 19.2584 22.9243C19.3027 22.8483 19.3037 22.7544 19.2604 22.6779H19.2601Z" fill="#FA9016"/>
</g>
<defs>
<linearGradient id="paint0_linear_3821_212627" x1="15.8421" y1="13.4219" x2="15.8421" y2="27.3166" gradientUnits="userSpaceOnUse">
<stop stop-color="#FFD800"/>
<stop offset="1" stop-color="#F98917"/>
</linearGradient>
<clipPath id="clip0_3821_212627">
<rect width="36" height="36" fill="white"/>
</clipPath>
</defs>
</svg>
