<svg width="36" height="36" viewBox="0 0 36 36" fill="none" xmlns="http://www.w3.org/2000/svg">
<g clip-path="url(#clip0_3821_212612)">
<circle cx="18" cy="18" r="18" fill="#F5F8FA"/>
<mask id="mask0_3821_212612" style="mask-type:alpha" maskUnits="userSpaceOnUse" x="0" y="0" width="36" height="36">
<circle cx="18" cy="18" r="18" fill="#E5E7EC"/>
</mask>
<g mask="url(#mask0_3821_212612)">
</g>
<path d="M9.2002 10.8474C9.2002 9.22736 10.5273 7.91406 12.1644 7.91406H23.836C25.4731 7.91406 26.8002 9.22736 26.8002 10.8474V25.1474C26.8002 26.7674 25.4731 28.0807 23.836 28.0807H12.1644C10.5273 28.0807 9.2002 26.7674 9.2002 25.1474V10.8474Z" fill="url(#paint0_linear_3821_212612)"/>
<path d="M10.1162 11.2154C10.1162 9.89909 11.1833 8.83203 12.4995 8.83203H23.4995C24.8158 8.83203 25.8829 9.89909 25.8829 11.2154V16.7154C25.8829 18.0316 24.8158 19.0987 23.4995 19.0987H12.4995C11.1833 19.0987 10.1162 18.0316 10.1162 16.7154V11.2154Z" fill="white"/>
<path d="M23.3989 11.1823L22.9039 10.0273L22.4089 11.1823L21.2539 11.6773L22.4089 12.1723L22.9039 13.3273L23.3989 12.1723L24.5539 11.6773L23.3989 11.1823Z" fill="#FA9016"/>
<path d="M16.4637 12.9625C16.9193 12.9625 17.2887 12.5931 17.2887 12.1375C17.2887 11.6819 16.9193 11.3125 16.4637 11.3125C16.008 11.3125 15.6387 11.6819 15.6387 12.1375C15.6387 12.5931 16.008 12.9625 16.4637 12.9625Z" fill="#FA9016"/>
<path d="M21.5937 15.9562L19.7375 12.6561C19.7026 12.594 19.6385 12.5547 19.5675 12.5511C19.497 12.5468 19.4287 12.5813 19.3883 12.6398L17.6727 15.1179L16.6101 14.0553C16.5664 14.0118 16.507 13.991 16.4438 13.9959C16.3824 14.0019 16.3269 14.0353 16.2927 14.0867L15.0552 15.943C15.0131 16.0063 15.009 16.0875 15.0448 16.1546C15.0807 16.2216 15.1506 16.2635 15.2268 16.2635H21.4143C21.4875 16.2635 21.5554 16.2247 21.5923 16.1614C21.6292 16.0981 21.63 16.0199 21.5939 15.9562H21.5937Z" fill="#FA9016"/>
<rect x="11.9043" y="21.0234" width="12.4667" height="1.1" rx="0.549999" fill="white"/>
<rect x="11.9043" y="23.2227" width="9.16667" height="1.1" rx="0.55" fill="white"/>
</g>
<defs>
<linearGradient id="paint0_linear_3821_212612" x1="18.0002" y1="7.91406" x2="18.0002" y2="28.0807" gradientUnits="userSpaceOnUse">
<stop stop-color="#FFD800"/>
<stop offset="1" stop-color="#F98917"/>
</linearGradient>
<clipPath id="clip0_3821_212612">
<rect width="36" height="36" fill="white"/>
</clipPath>
</defs>
</svg>
