<svg width="36" height="36" viewBox="0 0 36 36" fill="none" xmlns="http://www.w3.org/2000/svg">
<g clip-path="url(#clip0_3821_212604)">
<circle cx="18" cy="18" r="18" fill="#F5F8FA"/>
<mask id="mask0_3821_212604" style="mask-type:alpha" maskUnits="userSpaceOnUse" x="0" y="0" width="36" height="36">
<circle cx="18" cy="18" r="18" fill="#E5E7EC"/>
</mask>
<g mask="url(#mask0_3821_212604)">
</g>
<g clip-path="url(#clip1_3821_212604)">
<path d="M9.0166 11.2185C9.0166 9.59845 10.3437 8.28516 11.9808 8.28516H23.6524C25.2895 8.28516 26.6166 9.59845 26.6166 11.2185V25.5185C26.6166 27.1385 25.2895 28.4518 23.6524 28.4518H11.9808C10.3437 28.4518 9.0166 27.1385 9.0166 25.5185V11.2185Z" fill="url(#paint0_linear_3821_212604)"/>
<path d="M9.93359 19.2818C9.93359 17.9655 11.0006 16.8984 12.3169 16.8984H23.3169C24.6332 16.8984 25.7003 17.9655 25.7003 19.2818V25.1484C25.7003 26.4647 24.6332 27.5318 23.3169 27.5318H12.3169C11.0006 27.5318 9.93359 26.4647 9.93359 25.1484V19.2818Z" fill="white"/>
<path d="M11.3984 12.8682C11.3984 12.5138 11.6857 12.2266 12.0401 12.2266H18.7318C19.0862 12.2266 19.3734 12.5138 19.3734 12.8682C19.3734 13.2226 19.0862 13.5099 18.7318 13.5099H12.0401C11.6857 13.5099 11.3984 13.2226 11.3984 12.8682Z" fill="white"/>
<rect x="12.3164" y="20.1992" width="1.1" height="1.1" rx="0.549999" fill="#FFD024"/>
<rect x="12.3164" y="22.9492" width="1.1" height="1.1" rx="0.549999" fill="#FFD024"/>
<rect x="14.1504" y="20.1992" width="8.8" height="1.1" rx="0.549999" fill="#FFD024"/>
<rect x="14.1504" y="22.9492" width="6.23333" height="1.1" rx="0.549999" fill="#FFD024"/>
<path fill-rule="evenodd" clip-rule="evenodd" d="M24.4631 7.34375C23.8427 7.34375 23.3052 7.68053 23.0144 8.17754C22.4571 8.03128 21.8389 8.17337 21.4002 8.61208C20.9614 9.05087 20.8197 9.66905 20.9657 10.2262C20.468 10.517 20.1318 11.0546 20.1318 11.675C20.1318 12.2955 20.4687 12.833 20.9658 13.1238C20.8201 13.6808 20.9613 14.299 21.4002 14.7379C21.8389 15.1766 22.457 15.3187 23.0143 15.1725C23.3051 15.6701 23.8428 16.0063 24.4631 16.0063C25.0836 16.0063 25.6211 15.6694 25.9119 15.1723C26.4689 15.318 27.0871 15.1768 27.526 14.7379C27.9647 14.2992 28.1068 13.6811 27.9606 13.1238C28.4582 12.8329 28.7943 12.2953 28.7943 11.675C28.7943 11.0541 28.4574 10.5169 27.9603 10.2262C28.1061 9.66922 27.9649 9.051 27.526 8.61208C27.0873 8.1734 26.4691 8.0313 25.9119 8.1775C25.621 7.67988 25.0834 7.34375 24.4631 7.34375Z" fill="#FA7617"/>
<path d="M26.1681 12.5712L25.9082 11.9648L25.6484 12.5712L25.042 12.8311L25.6484 13.091L25.9082 13.6973L26.1681 13.091L26.7745 12.8311L26.1681 12.5712Z" fill="white"/>
<path d="M24.4036 10.576L23.8839 9.36328L23.3641 10.576L22.1514 11.0958L23.3641 11.6155L23.8839 12.8283L24.4036 11.6155L25.6164 11.0958L24.4036 10.576Z" fill="white"/>
</g>
</g>
<defs>
<linearGradient id="paint0_linear_3821_212604" x1="17.8166" y1="8.28516" x2="17.8166" y2="28.4518" gradientUnits="userSpaceOnUse">
<stop stop-color="#FFD800"/>
<stop offset="1" stop-color="#F98917"/>
</linearGradient>
<clipPath id="clip0_3821_212604">
<rect width="36" height="36" fill="white"/>
</clipPath>
<clipPath id="clip1_3821_212604">
<rect width="22" height="22" fill="white" transform="translate(7 7)"/>
</clipPath>
</defs>
</svg>
