<svg width="36" height="36" viewBox="0 0 36 36" fill="none" xmlns="http://www.w3.org/2000/svg">
<g clip-path="url(#clip0_3821_212642)">
<circle cx="18" cy="18" r="18" fill="#F5F8FA"/>
<path d="M19.1231 11.4921C18.2371 11.1687 17.2805 10.9922 16.2826 10.9922C11.7083 10.9922 8 14.7004 8 19.2748C8 23.8492 11.7083 27.5574 16.2826 27.5574C20.857 27.5574 24.5652 23.8492 24.5652 19.2748C24.5652 17.8062 24.183 16.4269 23.5127 15.231L23.3906 15.5886C23.128 16.357 22.0663 16.3803 21.7554 15.6588L21.7282 15.5886L21.3743 14.5523C21.2931 14.3146 21.1619 14.097 20.9895 13.9143C20.8171 13.7316 20.6075 13.588 20.3749 13.4932L20.28 13.4576L19.2438 13.1037C18.4933 12.8474 18.4532 11.8297 19.1231 11.4921Z" fill="url(#paint0_linear_3821_212642)"/>
<path d="M23.0586 7.41309L23.1836 7.78027C23.6525 7.81953 24.1047 8.07428 24.3535 8.5459L24.4062 8.65527L24.4121 8.66797L24.417 8.68164L24.4463 8.75977L24.4492 8.76855L24.8037 9.80469L24.8506 9.91992C24.9031 10.0326 24.9729 10.1367 25.0586 10.2275C25.1713 10.3469 25.3083 10.4411 25.46 10.5039L25.5293 10.5303L26.5664 10.8848L26.6836 10.9297C27.2245 11.1628 27.5109 11.6465 27.5518 12.1494L27.9209 12.2754L27.5527 12.4004C27.5105 12.9042 27.2209 13.3894 26.6797 13.623L26.666 13.6289L26.6523 13.6338L26.5664 13.666L25.5303 14.0205H25.5293C25.3718 14.0743 25.2275 14.1612 25.1064 14.2754C24.9853 14.3897 24.89 14.5293 24.8271 14.6836L24.7979 14.7627L24.4502 15.7822C24.2396 16.3986 23.7228 16.7248 23.1846 16.7686L23.0586 17.1387L22.9326 16.7695C22.4291 16.727 21.9451 16.4368 21.7119 15.8955L21.707 15.8857L21.7031 15.875L21.6758 15.8047L21.6719 15.7939L21.668 15.7822L21.3135 14.7461C21.2731 14.6278 21.214 14.5171 21.1387 14.418L21.0586 14.3232C20.9443 14.2022 20.8055 14.1068 20.6514 14.0439H20.6504L20.5781 14.0166L19.5518 13.666C18.935 13.4552 18.6089 12.9389 18.5654 12.4004L18.1963 12.2754L18.5645 12.1494C18.6069 11.6459 18.897 11.161 19.4385 10.9277L19.4492 10.9238L19.459 10.9199L19.5293 10.8926L19.541 10.8877L19.5518 10.8848L20.5879 10.5303L20.7041 10.4834C20.8165 10.4309 20.9201 10.3609 21.0107 10.2754L21.0967 10.1846C21.1774 10.0901 21.2429 9.98282 21.29 9.86719L21.3193 9.78809L21.668 8.76855V8.76758L21.7129 8.65039C21.946 8.10947 22.4298 7.82204 22.9326 7.78125L23.0586 7.41309ZM26.5713 6.85449C26.7161 6.85449 26.8589 6.88401 26.9902 6.94238L27.1172 7.00977L27.2334 7.09473C27.3067 7.15618 27.3712 7.22742 27.4248 7.30664L27.4971 7.43066L27.5059 7.44824L27.5127 7.4668L27.5342 7.51758L27.541 7.53418L27.5469 7.55176L27.6064 7.72656L27.7812 7.78613H27.7822C27.9271 7.83538 28.058 7.9169 28.167 8.02246L28.2686 8.13574L28.3516 8.2627C28.4007 8.35137 28.4367 8.44677 28.458 8.5459L28.4785 8.69629L28.4775 8.84863C28.4691 8.94949 28.4455 9.0485 28.4082 9.14258L28.3418 9.28027C28.2394 9.45667 28.0865 9.59879 27.9033 9.68848L27.8848 9.69727L27.8662 9.70508L27.8145 9.72559L27.7988 9.73242L27.7822 9.73828L27.6064 9.79785L27.5469 9.97266L27.5479 9.97363C27.4985 10.1184 27.4171 10.2495 27.3115 10.3584L27.1982 10.46C27.0768 10.5528 26.9363 10.6166 26.7881 10.6484L26.6367 10.6699C26.4839 10.6796 26.3315 10.6548 26.1904 10.5986L26.0537 10.5322C25.8773 10.4297 25.7351 10.277 25.6455 10.0938L25.6367 10.0762L25.6299 10.0586L25.6084 10.0068L25.6016 9.99023L25.5957 9.97363L25.5352 9.79785L25.3604 9.73828V9.7373C25.2158 9.68802 25.0844 9.60832 24.9756 9.50293L24.874 9.38965C24.781 9.26817 24.7165 9.12785 24.6846 8.97949L24.6641 8.82812C24.6511 8.62459 24.6984 8.42152 24.8008 8.24512L24.8867 8.12012C24.9814 8.0013 25.1017 7.90431 25.2393 7.83691L25.2578 7.82812L25.2764 7.82031L25.3281 7.79883L25.3447 7.79297L25.3604 7.78711L25.5352 7.72656L25.5957 7.55176L25.6592 7.4043C25.7337 7.26278 25.8404 7.13977 25.9717 7.0459L26.1094 6.96289C26.2521 6.89136 26.4102 6.85448 26.5713 6.85449Z" fill="#FA7617" stroke="#F5F8FA" stroke-width="1.18323"/>
<rect x="14.4023" y="16.6016" width="1.39971" height="2.8" rx="0.699857" fill="white"/>
<rect x="17.2021" y="16.6016" width="1.39971" height="2.8" rx="0.699857" fill="white"/>
<path d="M13 20.8008V20.8008C14.6166 23.3873 18.3834 23.3873 20 20.8008V20.8008" stroke="white" stroke-width="1.4" stroke-linecap="round"/>
</g>
<defs>
<linearGradient id="paint0_linear_3821_212642" x1="16.2826" y1="10.9922" x2="16.2826" y2="27.5574" gradientUnits="userSpaceOnUse">
<stop stop-color="#FFD800"/>
<stop offset="1" stop-color="#F98917"/>
</linearGradient>
<clipPath id="clip0_3821_212642">
<rect width="36" height="36" fill="white"/>
</clipPath>
</defs>
</svg>
